<?xml version="1.0" standalone="no"?>
<!DOCTYPE svg PUBLIC "-//W3C//DTD SVG 1.1//EN" "http://www.w3.org/Graphics/SVG/1.1/DTD/svg11.dtd" >
<svg xmlns="http://www.w3.org/2000/svg">
<metadata>
This is a custom SVG webfont generated by Font Squirrel.
Copyright   : Copyright c 2011 by Pablo Impallari wwwimpallaricom All rights reserved
Designer    : Pablo Impallari
Foundry     : Pablo Impallari wwwimpallaricom
Foundry URL : wwwimpallaricom
</metadata>
<defs>
<font id="LobsterTwoItalic" horiz-adv-x="993" >
<font-face units-per-em="2048" ascent="1638" descent="-410" />
<missing-glyph horiz-adv-x="440" />
<glyph unicode=" "  horiz-adv-x="440" />
<glyph unicode="&#x09;" horiz-adv-x="440" />
<glyph unicode="&#xa0;" horiz-adv-x="440" />
<glyph unicode="!" horiz-adv-x="495" d="M12 135q0 55 40 96t95.5 41t96.5 -41t41 -96t-41 -95t-97 -40q-57 0 -96 39t-39 96zM145 473l146 961h229l-266 -961h-109z" />
<glyph unicode="&#x22;" horiz-adv-x="686" d="M190 1149l125 387h174l-186 -387h-113zM516 1149l125 387h174l-186 -387h-113z" />
<glyph unicode="#" horiz-adv-x="1075" d="M-8 289l28 135h246l45 258h-237l28 135h234l119 653h118l-145 -653h270l119 653h119l-145 -653h249l-26 -135h-252l-57 -258h253l-26 -135h-258l-76 -344h-55l61 344h-293l-75 -344h-56l62 344h-250zM342 424h287l45 258h-275z" />
<glyph unicode="$" horiz-adv-x="786" d="M43 451q0 80 38 128t91 48q47 0 86 -47q-41 -6 -61.5 -48.5t-20.5 -89.5q0 -61 34 -99t87 -50l74 418l-44 31q-36 26 -47.5 35t-39 34t-39 40t-26.5 39.5t-21.5 49.5t-6.5 53q0 113 94.5 184.5t227.5 75.5l39 217h90l-49 -223q80 -12 134 -55t54 -117q0 -51 -22.5 -101 t-63.5 -50q-37 0 -71 37q47 47 47 114q0 88 -92 113l-78 -348q59 -37 87.5 -58.5t71.5 -63.5t62.5 -90t19.5 -110q0 -141 -107.5 -220t-271.5 -79l-59 -274h-27l50 276q-111 10 -175.5 67.5t-64.5 162.5zM301 1024q0 -76 100 -147l56 315q-78 -6 -117 -58.5t-39 -109.5z M336 289q78 0 133 54t55 140q0 100 -104 191z" />
<glyph unicode="%" horiz-adv-x="1259" d="M139 995q0 190 93.5 316.5t234.5 126.5q168 0 168 -226q0 -102 -34 -200.5t-110.5 -172t-183.5 -73.5q-168 0 -168 229zM197 0l790 1536h123l-791 -1536h-122zM252 981q0 -135 86 -135q84 0 139 116.5t55 280.5q0 129 -71 129q-84 0 -146.5 -115.5t-62.5 -275.5zM657 229 q0 190 93.5 316.5t234.5 126.5q168 0 168 -226q0 -102 -34 -200.5t-110.5 -172t-183.5 -73.5q-168 0 -168 229zM770 215q0 -135 86 -135q84 0 139.5 116.5t55.5 280.5q0 129 -72 129q-84 0 -146.5 -115.5t-62.5 -275.5z" />
<glyph unicode="&#x26;" horiz-adv-x="1323" d="M16 324q0 164 102.5 311t276.5 219q-125 90 -125 246q0 166 130 303t319 137q127 0 210 -67.5t83 -188.5q0 -90 -45 -151.5t-107 -61.5q-55 0 -96 55q45 16 82 65.5t37 123.5q0 147 -138 147q-104 0 -193 -95t-89 -257q0 -221 164 -254q-174 -37 -272.5 -172t-98.5 -303 q0 -256 258 -256q188 0 299 132t156 341q-18 2 -49 5t-55.5 5t-45.5 2q-135 0 -192 -92l-15 2q31 111 129.5 179.5t245.5 68.5q29 0 80 -5t76 -5q145 0 194 88h13q0 -80 -98.5 -159t-223.5 -89q-51 -270 -223 -452.5t-412 -182.5q-186 0 -281.5 102.5t-95.5 258.5z" />
<glyph unicode="'" horiz-adv-x="360" d="M190 1149l125 387h174l-186 -387h-113z" />
<glyph unicode="(" horiz-adv-x="557" d="M25 205q0 268 80.5 536.5t235 484.5t351.5 310l13 -55q-154 -74 -283 -291t-200.5 -494.5t-71.5 -539.5q0 -410 163 -619l-57 -49q-231 256 -231 717z" />
<glyph unicode=")" horiz-adv-x="557" d="M-207 -457q154 74 283 291t200.5 494.5t71.5 539.5q0 410 -164 619l58 49q231 -256 231 -717q0 -268 -81 -536.5t-235.5 -484.5t-351.5 -310z" />
<glyph unicode="*" horiz-adv-x="835" d="M182 1014l244 141l-244 141l49 82l238 -137v299h106v-299l238 137l49 -82l-246 -141l246 -141l-49 -82l-238 137v-299h-106v299l-238 -137z" />
<glyph unicode="+" horiz-adv-x="878" d="M31 506l32 143h289l56 250h170l-56 -250h293l-31 -143h-292l-64 -293h-170l64 293h-291z" />
<glyph unicode="," horiz-adv-x="434" d="M-37 -223q0 33 41 97.5t41 94.5q0 33 -35 65t-35 91q0 63 40 100t96 37q129 0 129 -123q0 -102 -82 -228t-176 -169q-18 12 -19 35z" />
<glyph unicode="-" horiz-adv-x="657" d="M84 473l33 143h409l-30 -143h-412z" />
<glyph unicode="." horiz-adv-x="436" d="M-25 125q0 55 40 96t95.5 41t96.5 -41t41 -96t-41 -95t-96 -40q-57 0 -96.5 39t-39.5 96z" />
<glyph unicode="/" horiz-adv-x="399" d="M-98 -512l434 2048h102l-434 -2048h-102z" />
<glyph unicode="0" horiz-adv-x="1204" d="M100 510q0 285 84 517.5t240.5 370.5t359.5 138q367 0 367 -510q0 -135 -23.5 -273.5t-77 -277.5t-130 -246.5t-194.5 -174t-257 -66.5q-207 0 -288 138t-81 384zM346 451q0 -309 191 -310q117 0 213 149.5t147 377t51 471.5q0 143 -32.5 219t-124.5 76 q-117 0 -221.5 -144.5t-164 -370.5t-59.5 -468z" />
<glyph unicode="1" horiz-adv-x="632" d="M113 0l266 1266h-227l28 106q221 0 479 160l-325 -1532h-221z" />
<glyph unicode="2" horiz-adv-x="1067" d="M4 61q0 100 54.5 203t135.5 185l177 177l178 180q82 85 136 193.5t54 217.5q0 111 -51 164t-133 53q-70 0 -127 -47.5t-57 -131.5q0 -113 78 -137q-56 -69 -119 -69h-2q-57 0 -99.5 46t-42.5 130q0 127 97.5 218t300.5 91q389 0 389 -330q0 -119 -52.5 -227.5t-132 -187 t-177 -159.5t-183.5 -145.5t-156.5 -143.5t-93.5 -153q31 9 74 9q55 0 185 -18.5t200 -18.5q106 0 162.5 31.5t120.5 109.5q2 -35 2 -90q0 -125 -51.5 -179.5t-200.5 -54.5q-102 0 -250 37t-250 37q-20 0 -50 -10t-65 -26.5t-47 -20.5q-4 23 -4 67z" />
<glyph unicode="3" horiz-adv-x="1095" d="M12 334q0 131 63.5 211t166.5 80q119 -1 137 -99q-180 -10 -180 -200q0 -195 202 -195q162 0 251 114.5t89 262.5q0 135 -84 233.5t-249 114.5q193 45 302 156.5t109 228.5q0 82 -50 136.5t-136 54.5q-96 0 -153.5 -50.5t-57.5 -119.5q0 -84 80 -144q-70 -63 -137 -63 q-55 0 -90 44t-35 120q0 147 124.5 231t290.5 84q152 0 258.5 -78t106.5 -221q0 -115 -76 -219.5t-205 -161.5q131 -57 194.5 -154.5t63.5 -214.5q0 -186 -169 -341.5t-406 -155.5q-59 0 -117.5 12t-130.5 44t-117 106.5t-45 183.5z" />
<glyph unicode="4" horiz-adv-x="989" d="M18 594q27 82 113 220t149.5 276.5t63.5 269.5q0 59 -25 172q82 0 134.5 -51t52.5 -166q0 -84 -38 -171t-85 -149l-107 -141q-59 -80 -88 -139h383l170 790l228 31l-176 -821h172l-31 -121h-166l-127 -594h-221l127 594h-529z" />
<glyph unicode="5" horiz-adv-x="1046" d="M20 291q0 125 63.5 204.5t149.5 79.5q106 0 132 -104q-78 -4 -123 -49t-45 -121q0 -90 53 -136t137 -46q156 0 243 120.5t87 276.5q0 133 -79 209t-212 76q-127 0 -264 -90l168 788q219 -33 327 -33q174 0 332 68q4 -45 4 -68q0 -204 -227 -204h-2q-63 0 -195.5 24.5 t-146.5 26.5l-92 -424q133 63 256 63q178 0 271 -114.5t93 -288.5q0 -233 -149.5 -397t-440.5 -164q-141 0 -240.5 69.5t-99.5 233.5z" />
<glyph unicode="6" horiz-adv-x="1107" d="M84 428q0 274 84 523t255 417t392 168q129 0 199.5 -50t70.5 -118q0 -53 -34.5 -100t-98.5 -47q-12 0 -49 8q37 33 37 86q0 55 -35 91t-86 36q-137 0 -260 -158t-190.5 -383t-67.5 -436q0 -172 56.5 -247t174.5 -75q141 0 228.5 140.5t87.5 281.5q0 102 -48 164t-120 62 q-76 0 -121 -37t-45 -105q0 -22 6 -51q-102 0 -102 90q0 88 77.5 164t209.5 76q150 0 228.5 -101.5t78.5 -248.5q0 -229 -153.5 -409.5t-393.5 -180.5q-215 0 -298 110.5t-83 329.5z" />
<glyph unicode="7" horiz-adv-x="1017" d="M170 1370q0 94 63.5 129t178.5 35q88 0 299 -25.5t305 -25.5q88 0 168 16q0 -41 -67.5 -138t-164 -223t-193.5 -269.5t-165 -311.5t-68 -313q0 -88 35 -230q-66 -32 -125 -32h-4q-168 0 -168 274q0 113 67.5 247t162.5 251l191 225q95 108 162.5 200.5t67.5 143.5 q-190 39 -370 39q-236 0 -248 -158q-55 2 -91 48t-36 118z" />
<glyph unicode="8" horiz-adv-x="1077" d="M45 387q0 150 92 282t264 185q-161 99 -161 277q0 160 121.5 282.5t314.5 122.5q158 0 250 -87t92 -212q0 -109 -72 -212t-203 -171q121 -41 178.5 -134t57.5 -200q0 -195 -157 -363.5t-380 -168.5q-184 0 -290.5 116.5t-106.5 282.5zM250 383q0 -96 52.5 -172t150.5 -76 q117 0 202.5 108.5t85.5 235.5q0 162 -190 299q-133 -43 -217 -157.5t-84 -237.5zM442 1174q0 -76 37 -144.5t107 -111.5q115 63 181.5 165.5t66.5 196.5q0 72 -39 122t-115 50q-98 0 -168 -85t-70 -193z" />
<glyph unicode="9" horiz-adv-x="1120" d="M115 193q0 147 149 153q-22 -22 -22 -60q0 -54 33.5 -98.5t109.5 -44.5q27 0 59.5 6.5t104.5 53.5t128 129t109.5 256t69.5 409q4 78 4 109q0 346 -205 346q-137 0 -227 -140.5t-90 -320.5q0 -39 6 -73.5t21.5 -76.5t51.5 -67.5t87 -25.5q49 0 93 42.5t69 118.5 q49 -29 49 -98q0 -80 -83 -133t-192 -53q-147 0 -221 105.5t-74 260.5q0 229 148.5 387t390.5 158q213 0 304 -122t91 -355q0 -268 -88 -512t-253 -400.5t-363 -156.5q-131 0 -195.5 58t-64.5 145z" />
<glyph unicode=":" horiz-adv-x="520" d="M51 297q0 55 40 96t95.5 41t96.5 -41t41 -96t-41 -95t-97 -40q-57 0 -96 39t-39 96zM150 791q0 55 39.5 96t95 41t96.5 -41t41 -96.5t-41 -95.5t-96 -40q-57 0 -96 39.5t-39 96.5z" />
<glyph unicode=";" horiz-adv-x="509" d="M33 -53q0 33 41 97.5t41 94.5q0 33 -35 65t-35 91q0 63 40 100t95.5 37t96 -37t40.5 -100.5t-80.5 -189t-185.5 -193.5q-18 12 -18 35zM143 791q0 55 40 96t95.5 41t96.5 -41t41 -96.5t-41 -95.5t-96 -40q-57 0 -96.5 39.5t-39.5 96.5z" />
<glyph unicode="&#x3c;" horiz-adv-x="733" d="M14 487l19 84l629 308l-21 -113l-494 -246l398 -196l-25 -117z" />
<glyph unicode="=" horiz-adv-x="966" d="M55 272l35 164h696l-32 -164h-699zM131 647l35 164h696l-33 -164h-698z" />
<glyph unicode="&#x3e;" horiz-adv-x="741" d="M23 207l28 117l492 196l-398 246l19 113l504 -308l-23 -110z" />
<glyph unicode="?" horiz-adv-x="856" d="M150 1104q0 123 109.5 226.5t320.5 103.5q162 0 244.5 -69.5t82.5 -178.5q0 -98 -45 -179t-112.5 -139.5t-138 -113t-132 -126t-84.5 -153.5h-94q0 80 43 151.5t104 129.5l120 118q61 60 104 139t43 169q0 82 -49.5 121.5t-124.5 39.5q-86 0 -156 -54t-70 -136 q0 -43 35 -84t105 -51q-53 -86 -150 -86q-63 0 -109 45t-46 127zM164 135q0 55 40 96t95 41t96 -41t41 -96t-41 -95t-96 -40q-57 0 -96 39t-39 96z" />
<glyph unicode="@" horiz-adv-x="1124" d="M33 336q0 334 205.5 569.5t492.5 235.5q55 0 104.5 -11.5t102.5 -42t85 -99t32 -169.5q0 -205 -105.5 -372.5t-251.5 -167.5q-70 0 -100 51q-51 -84 -133 -84q-57 0 -93 46t-36 134q0 145 86 302t190 157q53 0 80 -35l8 31l113 -13l-92 -393q-14 -57 -14 -74 q0 -41 30 -41q78 0 148.5 151t70.5 290q0 109 -54 180.5t-177 71.5q-150 0 -274.5 -109.5t-189 -263.5t-64.5 -303q0 -309 313 -309q106 0 191 46t120 119q47 -20 47 -88q0 -98 -114.5 -160.5t-302.5 -62.5q-78 0 -148 21.5t-133.5 66.5t-100 129t-36.5 197zM442 459 q0 -39 14.5 -73t47.5 -34q45 0 78 51q0 20 6 39l88 344q-18 31 -43 31q-74 0 -132.5 -131t-58.5 -227z" />
<glyph unicode="A" horiz-adv-x="1234" d="M-80 692q0 109 125 173.5t311 64.5q27 0 84 -4q170 270 358.5 440t362.5 170q88 0 158 -29l-322 -1507h-223l156 735q-141 78 -367 103q-123 -244 -199.5 -499t-76.5 -433q0 -82 18 -139q-231 0 -231 217q0 143 88 381.5t229 480.5q-127 -4 -213 -39t-86 -88 q41 -14 41 -51q0 -82 -100 -82q-113 0 -113 106zM598 905q209 -35 344 -106l135 637q-102 -4 -230 -152t-249 -379z" />
<glyph unicode="B" horiz-adv-x="1390" d="M341 1370q226 166 517 166q213 0 324.5 -94t111.5 -232q0 -94 -55 -183t-154 -144q115 -25 180.5 -117t65.5 -211q0 -82 -23.5 -176t-71.5 -190.5t-140 -160t-213 -63.5q-94 0 -150.5 37t-56.5 104q0 51 26 105q43 -80 144 -80q84 0 140 67.5t77.5 153.5t21.5 178 q0 133 -50 205t-183 72q-25 0 -115 -8l-170 -799h-225l283 1313l229 30l-98 -462h37q135 0 235 109.5t100 230.5q0 102 -80.5 171.5t-230.5 69.5q-209 0 -370.5 -136t-161.5 -382q0 -53 28 -139q-198 0 -198 186q0 213 226 379z" />
<glyph unicode="C" horiz-adv-x="1036" d="M92 469q0 121 21.5 254t76 280.5t133 264t206.5 192.5t286 76q150 0 242 -67.5t92 -211.5q0 -184 -143 -184q-59 0 -86 37q31 18 59.5 81.5t28.5 133.5q0 68 -40 102.5t-112 34.5q-154 0 -275.5 -158.5t-181 -376.5t-59.5 -433q0 -82 11 -140.5t43 -115t98.5 -86 t166.5 -29.5q137 0 236.5 59.5t181.5 186.5l47 -21q-80 -180 -247.5 -280.5t-362.5 -100.5q-422 0 -422 502z" />
<glyph unicode="D" horiz-adv-x="1441" d="M115 995q0 211 226 376t527 165q195 0 323 -82t180 -212t52 -308q0 -221 -84 -445.5t-218 -370t-269 -145.5q-125 0 -258 119l-19 -92h-225l283 1313l229 30l-254 -1183q66 -53 133 -54q109 0 197 90.5t141.5 231.5t81 298t27.5 302q0 236 -88 335t-275 99 q-223 0 -392 -140t-169 -372q0 -88 70 -145q-219 0 -219 190z" />
<glyph unicode="E" horiz-adv-x="915" d="M25 324q0 164 102 311t276 219q-124 89 -124 244q0 168 130 305t318 137q127 0 210 -67.5t83 -188.5q0 -90 -45 -151.5t-107 -61.5q-55 0 -96 55q45 16 82 65.5t37 123.5q0 147 -137 147q-104 0 -193.5 -95t-89.5 -257q0 -221 164 -254q-174 -37 -272.5 -172t-98.5 -303 q0 -256 258 -256q137 0 254 71t178 173l47 -21q-78 -176 -244.5 -280.5t-355.5 -104.5q-186 0 -281 102.5t-95 258.5z" />
<glyph unicode="F" horiz-adv-x="1134" d="M127 1012q0 215 173 369.5t497 154.5q72 0 185.5 -12.5t180.5 -12.5q111 0 187 25q-33 -129 -88.5 -171t-139.5 -42q-88 0 -264 37l-100 -469h305l-29 -121h-303l-164 -770h-225l301 1397q-14 2 -41 2q-326 0 -326 -436q0 -119 39 -158q-96 0 -142 47t-46 160z" />
<glyph unicode="G" horiz-adv-x="1210" d="M102 731q0 211 88.5 393.5t258 297t389.5 114.5q164 0 274.5 -67.5t110.5 -215.5q0 -80 -35 -130t-109 -50q-96 0 -141 53q12 0 36.5 12.5t53.5 56.5t29 108q0 159 -162 159h-2q-221 0 -383 -229t-162 -508q0 -164 62.5 -261t179.5 -97h1q257 0 392 491l199 -2l-168 -770 q-53 -250 -170 -380t-322 -130q-168 0 -242.5 80t-74.5 201q0 119 67.5 200.5t206.5 81.5q176 0 176 -137q0 -35 -12 -82q-57 76 -141 76q-63 0 -110.5 -48t-47.5 -124q0 -74 47 -121t119 -47q80 0 147.5 64.5t100.5 209.5l104 478q-137 -184 -354 -185q-184 0 -295 135.5 t-111 372.5z" />
<glyph unicode="H" horiz-adv-x="1427" d="M119 993q0 211 204.5 377t442.5 166q31 0 84 -4l-137 -641h440l125 577l238 64l-326 -1532h-225l163 770h-440l-164 -770h-225l305 1430q-150 -51 -240 -180.5t-90 -303.5q0 -115 50 -141q-205 0 -205 188z" />
<glyph unicode="I" horiz-adv-x="827" d="M115 993q0 139 108.5 266t274.5 202t333 75q31 0 84 -4l-325 -1532h-225l301 1417q-174 -45 -277.5 -163.5t-103.5 -292.5q0 -102 49 -156q-219 0 -219 188z" />
<glyph unicode="J" horiz-adv-x="901" d="M-147 -147.5q0 124.5 70.5 205.5t213.5 81q160 0 160 -137q0 -12 -18 -82q-18 31 -55.5 51.5t-65.5 20.5q-70 0 -115 -54.5t-45 -117.5q0 -68 48 -115t116 -47q74 0 151.5 65.5t108.5 206.5l315 1487q-178 -39 -278.5 -163t-100.5 -289q0 -115 50 -160q-219 0 -220 188 q0 139 109 266t274.5 202t335.5 75h82l-307 -1454q-106 -506 -512 -506q-166 0 -241.5 76t-75.5 200.5z" />
<glyph unicode="K" horiz-adv-x="1325" d="M223.5 1259q108.5 127 274.5 202t333 75q31 0 84 -4l-141 -662l508 656h180l-598 -658q70 4 88 4q266 0 267 -221q0 -88 -50.5 -271t-50.5 -241q0 -109 80 -139q-121 -35 -182 -35q-72 0 -109 40t-37 93q0 72 59.5 263.5t59.5 267.5q0 166 -149 166q-37 0 -84 -11 l-166 -784h-225l303 1417q-180 -45 -288 -163.5t-108 -292.5q0 -109 43 -156q-200 0 -200 186q0 141 108.5 268z" />
<glyph unicode="L" horiz-adv-x="917" d="M111 973q0 139 108.5 266t274 202t333.5 75q31 -1 84 -5l-315 -1472q72 -18 180.5 -80.5t217 -112t210.5 -49.5q94 0 170 33q-35 -272 -227 -272q-72 0 -166 62.5t-175 136t-192.5 136t-210.5 62.5q-31 0 -47 -2l308 1444q-176 -45 -279.5 -164t-103.5 -293 q0 -102 49 -156q-219 0 -219 189z" />
<glyph unicode="M" horiz-adv-x="1536" d="M117 0l530 1434q-170 -37 -263 -165t-93 -323q0 -104 28 -141q-198 0 -198 182q0 135 105.5 265t251 207t267.5 77q76 0 121 -29l-53 -1190l498 1190h233l-215 -1507h-233l151 1069l-446 -1069h-219l47 1049l-389 -1049h-123z" />
<glyph unicode="N" horiz-adv-x="1458" d="M123 1004q0 193 173 362.5t398 169.5q78 0 137 -29l281 -1274l285 1299h157l-348 -1532h-262l-258 1104l-254 -1104h-153l321 1415q-154 -45 -241 -158.5t-87 -295.5q0 -92 50 -156q-100 0 -149.5 46t-49.5 153z" />
<glyph unicode="O" horiz-adv-x="1427" d="M111 977q0 139 115.5 270t306 210t393.5 79q495 0 495 -516q0 -127 -26.5 -263t-86 -274.5t-144.5 -248t-213 -178t-279 -68.5q-373 0 -373 411q0 131 36 291t101.5 312.5t177 255t242.5 102.5q56 -1 105 -17q-156 -82 -286 -393t-130 -559t180 -248q109 0 218.5 143.5 t178 369t68.5 448.5q0 195 -68.5 276.5t-244.5 81.5q-240 0 -420.5 -151.5t-180.5 -392.5q0 -86 21 -113q-186 0 -186 172z" />
<glyph unicode="P" horiz-adv-x="1230" d="M343 1371q228 165 505 165q225 0 347 -118t122 -288q0 -207 -165 -376.5t-427 -169.5h-45l-125 -584h-225l282 1313l230 30l-150 -696q139 2 242.5 86t149.5 199t46 239q0 291 -329 291q-221 0 -376 -138t-155 -376q0 -92 43 -143q-198 0 -198 186q0 215 228 380z" />
<glyph unicode="Q" horiz-adv-x="1460" d="M111 975q0 141 116.5 272t304 210t386.5 79q262 0 380.5 -140.5t118.5 -375.5q0 -244 -107.5 -509t-299.5 -407q59 -80 119.5 -121.5t152.5 -41.5q16 0 49 4q-59 -131 -184 -131q-104 0 -158.5 56t-99.5 163q-109 -45 -225 -45q-170 0 -267.5 99t-97.5 312q0 131 36 291 t101.5 312.5t177 255t242.5 102.5q56 -1 105 -17q-156 -82 -286 -392t-130 -554q0 -74 10 -114q81 24 152 24h6q104 0 184 -69q125 127 209 369.5t84 492.5q0 197 -67.5 279.5t-237.5 82.5q-250 0 -429.5 -150.5t-179.5 -410.5q0 -74 21 -96q-186 0 -186 170zM578 223 q41 -80 129 -80q55 0 108 31q-51 72 -133 72q-51 0 -104 -23z" />
<glyph unicode="R" horiz-adv-x="1341" d="M115 993q0 211 226 377t511 166q209 0 327.5 -95t118.5 -235q0 -98 -62 -193t-173 -153q156 -35 156 -209q0 -88 -50.5 -271t-50.5 -241q0 -109 80 -139q-121 -35 -182 -35q-72 0 -109 40t-37 93q0 72 59.5 263.5t59.5 267.5q0 166 -149 166q-57 0 -119 -15l-166 -780 h-225l282 1313l230 30l-103 -477h54q137 0 234 117t97 250q0 229 -299 229q-227 0 -383.5 -141t-156.5 -377q0 -102 24 -139q-82 0 -138 46t-56 142z" />
<glyph unicode="S" horiz-adv-x="1015" d="M-2 307q0 156 93 247t198 91q127 0 149 -135q-96 0 -169.5 -50t-73.5 -153q0 -94 61 -150.5t147 -56.5q106 0 188.5 77t82.5 216q0 96 -43 184.5t-105 156.5l-124 132q-62 64 -105 142.5t-43 160.5q0 158 136 262.5t333 104.5q47 0 91 -7t99.5 -29.5t89 -75t33.5 -130.5 q0 -92 -47 -151.5t-115 -59.5q-47 0 -79 43q41 25 67.5 75t26.5 106q0 68 -40 111.5t-130 43.5q-115 0 -182.5 -56t-67.5 -157q0 -72 34 -133t85 -104l112 -98q60 -56 111 -111t85 -145.5t34 -198.5q0 -240 -146.5 -368t-365.5 -128q-176 0 -298 85t-122 259z" />
<glyph unicode="T" horiz-adv-x="1374" d="M127 1014q0 102 39 191t120 165t222 120t328 44q115 0 268 -23.5t233 -23.5q143 0 250 43q-6 -240 -262 -240q-82 0 -326 47l-284 -1337h-226l295 1372q-53 4 -79 4q-219 0 -326 -89t-107 -312q0 -113 41 -172q-186 0 -186 211z" />
<glyph unicode="U" horiz-adv-x="1576" d="M113 993q0 139 108.5 266t278.5 202t346 75q45 0 98 -10l-75 -274l-63 -236l-49 -184l-41 -160t-27 -119.5t-17 -105t-4 -80.5q0 -117 35.5 -170.5t146.5 -53.5q82 0 137 25t112.5 101.5t109 229t104.5 400.5l137 633h221l-135 -639q-43 -205 -81 -336t-93 -250 t-126 -183.5t-172 -101t-239 -36.5q-215 0 -305 82t-90 249q0 55 7 119t30 166l33 151q10 48 50 202.5t48 191.5l74 301q-190 -37 -301 -170t-111 -330q0 -29 2 -51.5t6 -36.5t9 -24l8 -18q4 -9 6 -11q-76 0 -127 48t-51 138z" />
<glyph unicode="V" horiz-adv-x="1351" d="M121 993q0 223 177 383t456 160q33 0 86 -8l34 -1364l523 1362h116l-616 -1526h-227l-56 1419q-178 0 -268 -127t-90 -299q0 -106 43 -186q-178 0 -178 186z" />
<glyph unicode="W" horiz-adv-x="2060" d="M121 993q0 223 177 383t456 160q33 0 86 -8l34 -1364l523 1362h151l35 -1362l522 1362h117l-616 -1526h-228l-39 1094l-442 -1094h-227l-56 1419q-178 0 -268 -127t-90 -299q0 -106 43 -186q-178 0 -178 186z" />
<glyph unicode="X" horiz-adv-x="1296" d="M123 993q0 233 187.5 389t424.5 156q43 0 84 -6l170 -698l334 692h96l-401 -813l174 -713h-221l-158 627l-328 -627h-96l393 748l-178 714q-143 -37 -242.5 -178t-99.5 -309q0 -106 33 -150q-86 0 -129 36t-43 132z" />
<glyph unicode="Y" horiz-adv-x="1257" d="M121 993q0 219 180 381t432 162q31 0 84 -4l193 -797l329 791h95l-398 -895l-135 -631h-223l135 631l-213 831q-172 -45 -261 -178t-89 -285q0 -119 49 -194q-178 0 -178 188z" />
<glyph unicode="Z" horiz-adv-x="1081" d="M8 0l725 1444q-154 10 -190 10q-170 0 -183 -41q33 -27 33 -67q0 -39 -30.5 -71t-77.5 -32q-45 0 -79 34t-34 91q0 66 73.5 117t184.5 51h596l-719 -1427q27 0 120 -3.5t148 -3.5q215 0 244 43q-35 27 -35 68q0 45 34 72.5t81 27.5q43 0 77 -26.5t34 -71.5 q0 -80 -77 -147.5t-185 -67.5h-740z" />
<glyph unicode="[" horiz-adv-x="587" d="M-98 -512l434 2048h395l-26 -127h-248l-381 -1794h248l-27 -127h-395z" />
<glyph unicode="\" horiz-adv-x="1032" d="M217 1536h102l435 -2048h-103z" />
<glyph unicode="]" horiz-adv-x="585" d="M-205 -512l27 127h248l381 1794h-248l26 127h396l-435 -2048h-395z" />
<glyph unicode="^" horiz-adv-x="862" d="M113 1149l411 342h43l125 -342h-45l-133 207l-332 -207h-69z" />
<glyph unicode="_" horiz-adv-x="903" d="M-45 0l33 143h717l-31 -143h-719z" />
<glyph unicode="`" horiz-adv-x="411" d="M63 1536h175l63 -387h-113z" />
<glyph unicode="a" d="M10 317q0 109 35 230t97.5 231.5t166 183t226.5 72.5q141 0 167 -108l21 98h207l-150 -696q-10 -41 -10 -92q0 -92 64 -93q100 0 194 224h76q-47 -121 -97.5 -202t-98.5 -117t-84 -48t-76 -12q-150 0 -164 200q-49 -88 -133 -144t-179 -56q-111 0 -186.5 81t-75.5 248z M229 346q0 -203 129 -203q68 0 137.5 66.5t88.5 157.5l98 464q-6 37 -32.5 64t-69.5 27q-104 0 -188.5 -103.5t-123.5 -232.5t-39 -240z" />
<glyph unicode="b" horiz-adv-x="856" d="M18 219q1 66 17 148l223 1038l209 29l-105 -486q92 80 193 80q121 0 197.5 -69.5t76.5 -264.5q0 -162 -69.5 -322.5t-203.5 -272t-296 -111.5q-117 0 -179.5 52t-62.5 179zM215 236q0 -106 102 -107q133 0 228.5 169t95.5 374q0 250 -147 250q-63 0 -148 -70l-121 -539 q-10 -47 -10 -77z" />
<glyph unicode="c" horiz-adv-x="745" d="M16 317q0 96 29 211t87 233t167 195.5t248 77.5q215 0 215 -194q0 -74 -28.5 -123t-80.5 -49q-44 0 -67 43q25 16 43 57t18 76q0 37 -23.5 59.5t-68.5 22.5q-90 0 -166 -98.5t-112.5 -229.5t-36.5 -252q0 -109 41 -156t139 -47q227 0 360 224h70q-86 -162 -230.5 -270.5 t-300.5 -108.5q-131 0 -217 81t-86 248z" />
<glyph unicode="d" d="M10 317q0 109 35 230t97.5 231.5t166 183t226.5 72.5q141 0 167 -110l103 481l213 29l-238 -1106q-10 -41 -10 -92q0 -92 64 -93q100 0 194 224h76q-47 -121 -97.5 -202t-98.5 -117t-84 -48t-76 -12q-150 0 -164 200q-49 -88 -133 -144t-179 -56q-111 0 -186.5 81 t-75.5 248zM229 346q0 -203 129 -203q68 0 137.5 66.5t88.5 157.5l98 464q-6 37 -31.5 64t-70.5 27q-104 0 -188.5 -103.5t-123.5 -232.5t-39 -240z" />
<glyph unicode="e" horiz-adv-x="753" d="M16 315q0 74 17.5 164t57.5 189.5t97.5 179.5t148.5 133t198 53q219 0 219 -211q0 -172 -136.5 -280.5t-375.5 -132.5q-2 -23 -2 -64q0 -106 41 -154.5t137 -48.5q221 0 370 224h66q-86 -160 -231.5 -269.5t-303.5 -109.5q-129 0 -216 81t-87 246zM252 489 q172 27 274.5 122.5t102.5 232.5q0 90 -76 90q-106 0 -188 -134t-113 -311z" />
<glyph unicode="f" horiz-adv-x="489" d="M-377 -328q0 168 328 301l250 1176q16 74 36.5 130t61.5 120.5t110.5 99.5t163.5 35q113 0 174.5 -66.5t61.5 -169.5q0 -37 -6 -69h-82q6 22 6 49q0 53 -26.5 90t-77.5 37q-100 0 -146.5 -68t-77.5 -215l-20 -98h164l-15 -72h-166l-235 -1116q-43 -207 -106.5 -277.5 t-172.5 -70.5q-100 0 -162.5 45t-62.5 139zM-297 -326q0 -35 20.5 -57.5t55.5 -22.5q53 0 84 59.5t57 178.5l14 66q-111 -49 -171 -108.5t-60 -115.5z" />
<glyph unicode="g" d="M10 362q0 100 35 214t97.5 217.5t166 172t226.5 68.5q141 0 167 -108l21 98h205l-209 -983q119 37 189.5 107.5t119.5 218.5h76q-68 -201 -157 -282t-245 -118l-26 -131q-43 -207 -106.5 -277.5t-172.5 -70.5q-100 0 -162.5 45t-62.5 139q0 92 95 169t233 132l39 189 q-119 -129 -267 -129q-111 0 -186.5 81t-75.5 248zM229 391q0 -203 129 -203q61 0 132 57.5t96 139.5l96 449q-6 37 -32.5 62.5t-69.5 25.5q-104 0 -188.5 -95.5t-123.5 -214t-39 -221.5zM252 -326q0 -35 20.5 -57.5t55.5 -22.5q53 0 83.5 59.5t57.5 178.5l14 66 q-111 -49 -171 -107.5t-60 -116.5z" />
<glyph unicode="h" horiz-adv-x="956" d="M-45 0l301 1405l211 29l-121 -564q121 164 279 164q211 0 211 -231q0 -94 -49.5 -286.5t-49.5 -272.5q0 -100 62 -101q96 0 192 224h76q-47 -123 -97 -204t-97.5 -116t-82 -47t-73.5 -12q-100 0 -148.5 63.5t-48.5 167.5q0 94 49 286.5t49 260.5q0 113 -90 113 q-131 0 -227 -220l-141 -659h-205z" />
<glyph unicode="i" horiz-adv-x="444" d="M16 215q0 63 19 152l139 657h207l-150 -696q-10 -41 -10 -92q0 -92 64 -93q100 0 194 224h76q-47 -121 -97 -202t-98.5 -117t-84 -48t-76.5 -12q-182 0 -183 227zM190 1319q0 55 40 96t95.5 41t96.5 -41t41 -96t-41 -95t-96 -40q-57 0 -96.5 39t-39.5 96z" />
<glyph unicode="j" horiz-adv-x="444" d="M-377 -328q0 168 328 301l223 1051h205l-209 -983q119 37 189.5 107.5t119.5 218.5h76q-68 -201 -157 -282t-244 -118l-27 -131q-43 -207 -106.5 -277.5t-172.5 -70.5q-100 0 -162.5 45t-62.5 139zM-297 -326q0 -35 20.5 -57.5t55.5 -22.5q53 0 84 59.5t57 178.5l14 66 q-111 -49 -171 -108.5t-60 -115.5zM190 1319q0 55 40 96t95.5 41t96.5 -41t41 -96t-41 -95t-96 -40q-57 0 -96.5 39t-39.5 96z" />
<glyph unicode="k" horiz-adv-x="935" d="M-45 0l301 1405l211 29l-160 -742l422 332h199l-404 -279q4 0 14.5 1.5t16.5 1.5q207 0 207 -232q0 -51 -22.5 -143t-22.5 -129q0 -100 61 -101q96 0 193 224h76q-47 -123 -97.5 -204t-97.5 -116t-82 -47t-74 -12q-100 0 -148 63.5t-48 167.5q0 47 22.5 139.5t22.5 120.5 q0 113 -86 113q-117 0 -207 -158l-92 -434h-205z" />
<glyph unicode="l" horiz-adv-x="442" d="M14 215q0 63 19 152l223 1038l213 29l-240 -1106q-10 -41 -10 -92q0 -92 64 -93q100 0 194 224h76q-47 -121 -97 -202t-98.5 -117t-84 -48t-76.5 -12q-182 0 -183 227z" />
<glyph unicode="m" horiz-adv-x="1419" d="M-45 0l217 1024h207l-29 -131q109 141 254 141q182 0 207 -172q115 172 276 172q211 0 211 -231q0 -94 -49 -286.5t-49 -272.5q0 -100 62 -101q96 0 192 224h76q-47 -123 -97.5 -204t-97.5 -116t-81.5 -47t-73.5 -12q-100 0 -148.5 63.5t-48.5 167.5q0 94 49 286.5 t49 260.5q0 113 -90 113q-63 0 -109 -51.5t-98 -168.5l-141 -659h-207l146 684q10 45 10 92q0 102 -84 103q-61 0 -108.5 -52.5t-98.5 -167.5l-141 -659h-205z" />
<glyph unicode="n" horiz-adv-x="956" d="M-45 0l217 1024h207l-33 -154q121 164 279 164q211 0 211 -231q0 -94 -49.5 -286.5t-49.5 -272.5q0 -100 62 -101q96 0 192 224h76q-47 -123 -97 -204t-97.5 -116t-82 -47t-73.5 -12q-100 0 -148.5 63.5t-48.5 167.5q0 94 49 286.5t49 260.5q0 113 -90 113 q-127 0 -227 -220l-141 -659h-205z" />
<glyph unicode="o" horiz-adv-x="858" d="M16 311q0 78 14.5 166t53.5 189.5t97.5 181.5t154.5 133t217 53q227 0 231 -323q182 0 336 123l19 -56q-119 -137 -359 -168q-18 -272 -139 -447t-305 -175q-143 0 -231.5 78.5t-88.5 244.5zM242 348q0 -109 38.5 -157t133 -48t170 125t96.5 336q-82 0 -82 84 q0 94 88 105q-14 129 -123 129q-96 0 -173 -102.5t-112.5 -231.5t-35.5 -240z" />
<glyph unicode="p" horiz-adv-x="866" d="M-154 -512l342 1612h207l-35 -158q106 92 232 92q246 0 246 -342q0 -86 -14.5 -175t-50.5 -186.5t-90 -172t-142 -122.5t-197 -48q-102 0 -164 100l-117 -549zM201 190q42 -71 108 -71h2q86 0 152.5 60.5t101.5 153.5t52.5 184t17.5 171q0 113 -41 163t-100 50 q-90 0 -162 -100z" />
<glyph unicode="q" horiz-adv-x="911" d="M10 317q0 109 35 230t97.5 231.5t166 183t226.5 72.5q137 0 165 -104l21 94h207l-316 -1485l-217 -51l131 621q-111 -121 -254 -121q-111 0 -186.5 81t-75.5 248zM229 346q0 -203 129 -203q59 0 124 55.5t91 135.5l107 504q-6 35 -32.5 59.5t-67.5 24.5 q-104 0 -188.5 -103.5t-123.5 -232.5t-39 -240z" />
<glyph unicode="r" horiz-adv-x="688" d="M-45 0l217 1024h207l-37 -168q51 57 83 87t85 60.5t106 30.5q115 0 115 -96q0 -70 -40 -101.5t-79 -31.5q-23 0 -47 25.5t-55 25.5q-72 0 -188 -100l-162 -756h-205z" />
<glyph unicode="s" horiz-adv-x="700" d="M-31 250q0 68 32 118t77 72q137 242 252 607l215 40q12 -223 24.5 -385.5t19.5 -234.5t7 -125q0 -29 -4 -70q69 40 143 95h86q-109 -119 -270 -217q-45 -82 -124 -122t-159 -40q-145 0 -222 78.5t-77 183.5zM70 293q0 -152 133 -152q178 0 178 199q0 51 -15.5 195.5 t-27.5 332.5q-51 -207 -164 -434q29 -20 29 -67.5t-25.5 -75t-58.5 -27.5t-49 29z" />
<glyph unicode="t" horiz-adv-x="483" d="M14 217q0 57 19 150l125 585h-68l14 72h68l61 283l213 28l-67 -311h158l-15 -72h-160l-133 -624q-14 -78 -14 -88q0 -96 78 -97q55 0 114.5 59.5t110.5 164.5h76q-178 -379 -387 -379q-193 0 -193 229z" />
<glyph unicode="u" horiz-adv-x="929" d="M20 262q0 49 13 105l139 657h207l-150 -696q-8 -33 -8 -68q0 -57 25.5 -87t66.5 -30q63 0 125 61.5t82 162.5l139 657h207l-149 -696q-10 -41 -10 -92q0 -92 63 -93q100 0 195 224h75q-47 -121 -97 -202t-98 -117t-84 -48t-77 -12q-150 0 -164 196q-55 -98 -128 -147 t-146 -49q-94 0 -160 74.5t-66 199.5z" />
<glyph unicode="v" horiz-adv-x="817" d="M14 229q0 49 11 99l147 696h205l-148 -696q-8 -33 -8 -68q0 -117 88 -117q80 0 151.5 81t114.5 199t69 238.5t26 208.5q-18 -16 -72 -16q-29 0 -45 25.5t-16 62.5q0 45 28.5 82t75.5 37q66 0 101.5 -45t35.5 -129q0 -133 -39 -288t-104.5 -292t-163.5 -228t-205 -91 q-119 0 -185.5 61.5t-66.5 179.5z" />
<glyph unicode="w" horiz-adv-x="1275" d="M20 262q0 49 13 105l139 657h207l-150 -696q-8 -33 -8 -68q0 -57 25.5 -87t66.5 -30q63 0 125 61.5t82 162.5l139 657h205l-147 -696q-8 -33 -8 -68q0 -117 88 -117q106 0 189 141.5t119 303.5t36 282q-18 -16 -72 -16q-29 0 -45 25.5t-16 62.5q0 45 28.5 82t75.5 37 q129 0 129 -174q0 -186 -61.5 -391t-177 -356.5t-248.5 -151.5q-213 0 -246 174q-113 -174 -262 -174q-94 0 -160 74.5t-66 199.5z" />
<glyph unicode="x" horiz-adv-x="1019" d="M31 362l59 152l62 160q22 57 63 136t79 121t94 72.5t122 30.5h1q122 0 159 -243l32 -226q227 256 234 375q-25 -4 -35 -4q-92 0 -92 115q0 90 109 90q114 0 114 -155q0 -107 -69.5 -222t-243.5 -305l14 -94q16 -113 42 -167.5t75 -54.5q57 0 119.5 69t87.5 148h61 q-31 -113 -78 -191.5t-101 -115.5t-101 -51t-97 -14q-164 0 -219 366l-291 -354h-139l414 457l-33 239q-27 184 -78 185q-117 0 -289 -519h-75z" />
<glyph unicode="y" horiz-adv-x="929" d="M20 262q0 49 13 105l139 657h207l-150 -696q-8 -33 -8 -68q0 -57 25.5 -87t66.5 -30q63 0 125 61.5t82 162.5l139 657h205l-209 -983q119 37 189.5 107.5t120.5 218.5h75q-68 -201 -156.5 -282t-244.5 -118l-27 -131q-43 -207 -106.5 -277.5t-171.5 -70.5 q-100 0 -162.5 45t-62.5 139q0 92 95 169t232 132l27 129q-95 -114 -215 -114h-2q-94 0 -160 74.5t-66 199.5zM188 -326q0 -35 20.5 -57.5t55.5 -22.5q53 0 84 59.5t58 178.5l14 66q-111 -49 -171.5 -107.5t-60.5 -116.5z" />
<glyph unicode="z" horiz-adv-x="847" d="M35 0l522 913h-156q-122 0 -122 -31q0 -13 10 -29.5t10 -29.5q0 -23 -33 -45t-71 -22q-88 0 -89 121q0 147 238 147h487l-509 -881q209 -12 241 -12q78 0 92 43q-27 10 -26 43q0 35 30.5 56.5t69.5 21.5q41 0 67.5 -25.5t26.5 -76.5q0 -70 -79.5 -131.5t-192.5 -61.5 h-516z" />
<glyph unicode="{" horiz-adv-x="550" d="M-12 -287q0 117 93 353.5t93 336.5q0 63 -84 64q-25 0 -65 -6l24 117q37 -6 64 -7q47 0 76.5 20.5t42 59.5t15.5 70t3 78q0 57 -7 165.5t-7 159.5q0 88 28.5 177.5t107.5 162t191 72.5h88l-18 -102q-74 0 -115 -9.5t-72 -44.5q-94 -104 -94 -282q0 -57 6.5 -174t6.5 -176 q0 -160 -82 -228q24 -28 24 -71q0 -91 -92 -345t-92 -358q0 -47 4 -70.5t19.5 -48t52.5 -35t98 -10.5l-18 -92h-60q-113 0 -172 60.5t-59 162.5z" />
<glyph unicode="|" horiz-adv-x="561" d="M195 -512v2050h108v-2050h-108z" />
<glyph unicode="}" horiz-adv-x="546" d="M-164 -510l19 102q74 0 114.5 9.5t71.5 44.5q94 104 94 282q0 59 -6 176t-6 175q0 160 82 227q-25 29 -25 74q0 88 92.5 342t92.5 358q0 47 -4.5 70.5t-19.5 48t-52 35t-99 10.5l19 92h59q113 0 172.5 -59.5t59.5 -163.5q0 -117 -93.5 -353.5t-93.5 -336.5q0 -63 84 -64 q25 0 66 6l-25 -116q-37 6 -63 6q-47 0 -77 -20.5t-42 -59.5t-15 -70t-3 -78q0 -57 7 -165.5t7 -159.5q0 -88 -28.5 -177.5t-107.5 -162t-192 -72.5h-88z" />
<glyph unicode="~" horiz-adv-x="829" d="M184 1212q90 180 308 181q72 0 164 -30t141 -30q75 0 116 41h11q-16 -68 -105.5 -126t-191.5 -58q-63 0 -162.5 33.5t-147.5 33.5q-72 0 -122 -49z" />
<glyph unicode="&#xa1;" horiz-adv-x="471" d="M-115 -508l267 961h108l-145 -961h-230zM121 790.5q0 55.5 41 95.5t96 40q57 0 96 -39t39 -96q0 -55 -40 -96.5t-95 -41.5t-96 41t-41 96.5z" />
<glyph unicode="&#xa2;" horiz-adv-x="770" d="M63 588q0 80 21.5 175t68 195.5t133.5 175t201 93.5l45 243h119l-53 -239q82 -8 130 -51t48 -121q0 -68 -25.5 -112t-72.5 -44q-37 0 -62 39q23 14 39.5 51t16.5 70q0 29 -28 54.5t-64 27.5l-158 -713h18q123 0 234 90q-14 -109 -99.5 -163t-183.5 -64l-78 -350h-55 l61 348q-111 10 -183.5 83t-72.5 212zM264 616.5q0 -135.5 84 -170.5l119 666q-92 -61 -147.5 -210.5t-55.5 -285z" />
<glyph unicode="&#xa3;" horiz-adv-x="954" d="M45 0l180 748h-12q-70 0 -123 -50l-10 4q57 113 174 158l147 613l209 45l-155 -641q35 -6 111.5 -30t125.5 -24q76 0 117 41h10q-16 -68 -105 -126t-192 -58q-57 0 -112 16l-142 -577q68 20 159 20t185.5 17.5t208.5 85.5q-12 -111 -58 -176.5t-114 -65.5h-604z" />
<glyph unicode="&#xa4;" horiz-adv-x="980" d="M121 1008l78 73l114 -114q84 61 187 61q100 0 182 -59l115 114l73 -73l-112 -113q61 -84 61 -188q0 -102 -61 -187l112 -112l-73 -74l-113 113q-82 -59 -184 -60q-104 0 -189 62l-114 -115l-74 74l115 114q-59 82 -60 183q0 102 60 184zM262 708.5q0 -98.5 69.5 -168 t168 -69.5t168 69.5t69.5 168t-69.5 168t-168 69.5t-168 -69.5t-69.5 -168z" />
<glyph unicode="&#xa5;" horiz-adv-x="1069" d="M123 322l20 71h258l35 164h-262l21 72h258l-230 897h234l192 -791l330 791h94l-397 -897h311l-20 -72h-308l-34 -164h311l-21 -71h-307l-67 -322h-224l68 322h-262z" />
<glyph unicode="&#xa6;" horiz-adv-x="569" d="M199 455h108v-967h-108v967zM199 616v922h108v-922h-108z" />
<glyph unicode="&#xa7;" horiz-adv-x="1064" d="M-20 156q0 111 56 182.5t136 71.5q33 0 59.5 -14.5t43 -32t36.5 -48.5q-82 -6 -120.5 -44t-38.5 -113q0 -94 51 -142.5t129 -48.5q88 0 158.5 58.5t70.5 177.5q0 74 -31.5 135t-79.5 102l-104 86l-103 83q-48 38 -80 93.5t-32 118.5q0 92 59.5 165t155.5 112 q-12 41 -12 90q0 166 132 257t306 91q39 0 75 -6t83 -23.5t75.5 -61.5t28.5 -110q0 -68 -31.5 -113.5t-84.5 -45.5q-43 0 -74 32q33 20 53.5 60.5t20.5 83.5q0 55 -35 92t-107 37q-102 0 -175 -73t-73 -167q0 -70 48.5 -128t117 -103t137 -95.5t116.5 -126t48 -172.5 q0 -119 -64.5 -216t-172.5 -119v-13q0 -172 -119 -275.5t-324 -103.5q-55 0 -104 9.5t-106.5 34t-91 82t-33.5 141.5zM287 926q0 -49 42 -98.5t105 -95.5l127 -97q64 -51 118 -125t71 -160q96 43 96 162q0 82 -58.5 152.5t-133 115.5t-158.5 114t-123 138q-86 -37 -86 -106z " />
<glyph unicode="&#xa8;" horiz-adv-x="802" d="M147 1315q0 45 31 76.5t76 31.5t76.5 -31.5t31.5 -76.5t-31.5 -76t-76.5 -31t-76 31t-31 76zM483 1315q0 45 31 76.5t76 31.5t76.5 -31.5t31.5 -76.5t-31.5 -76t-76.5 -31t-76 31t-31 76z" />
<glyph unicode="&#xa9;" horiz-adv-x="1155" d="M86 678q0 219 145.5 371.5t350 152.5t350 -151.5t145.5 -370.5t-145 -371.5t-350 -152.5q-203 0 -349.5 152.5t-146.5 369.5zM139 678q0 -201 131 -340t316 -139q182 0 313 139t131 340t-131 340t-313 139q-184 0 -315.5 -139t-131.5 -340zM293 688q0 133 93 218t212 85 q84 0 153.5 -49t98.5 -145l-76 -29q-12 63 -63.5 98t-116.5 35q-98 0 -154.5 -63.5t-56.5 -147.5q0 -92 56.5 -161.5t152.5 -69.5q117 0 182 100l70 -47q-43 -63 -116 -101t-148 -38q-123 0 -205 93t-82 222z" />
<glyph unicode="&#xaa;" horiz-adv-x="681" d="M195 1141q0 133 77.5 259t214.5 126q80 0 95 -68l12 58h115l-86 -371q-4 -25 -5 -45q0 -57 44 -58q12 0 36 7q-25 -94 -92 -95q-86 0 -92 115q-63 -115 -174 -115q-61 0 -103 46.5t-42 140.5zM317 1155q0 -113 76 -113q37 0 74 37t47 88l55 244q-8 51 -57 51 q-63 0 -110.5 -56t-66 -122.5t-18.5 -128.5z" />
<glyph unicode="&#xab;" horiz-adv-x="1056" d="M16 520l443 400l86 -93l-359 -309l281 -287l-82 -90zM442 520l443 400l86 -93l-359 -309l281 -287l-82 -90z" />
<glyph unicode="&#xac;" horiz-adv-x="927" d="M43 473l33 143h715l-105 -512h-166l76 369h-553z" />
<glyph unicode="&#xad;" horiz-adv-x="657" d="M84 473l33 143h409l-30 -143h-412z" />
<glyph unicode="&#xae;" horiz-adv-x="1155" d="M88 684q0 219 145.5 371.5t350 152.5t350 -151.5t145.5 -370.5t-145 -371.5t-350 -152.5q-203 0 -349.5 152.5t-146.5 369.5zM141 684q0 -201 131 -340t316 -139q182 0 313 139t131 340t-131 340t-313 139q-184 0 -315.5 -139t-131.5 -340zM395 393l2 596h201 q205 0 205 -172q0 -125 -117 -158l129 -256l-76 -12l-127 254h-143v-252h-74zM469 717h135q51 0 88 23.5t37 76.5q0 94 -129 94h-131v-194z" />
<glyph unicode="&#xb0;" horiz-adv-x="651" d="M172 995q0 190 93.5 316.5t234.5 126.5q168 0 168 -226q0 -102 -34 -200.5t-111 -172t-183 -73.5q-168 0 -168 229zM285 981q0 -135 86 -135q84 0 139 116.5t55 280.5q0 129 -71 129q-84 0 -146.5 -115.5t-62.5 -275.5z" />
<glyph unicode="&#xb1;" horiz-adv-x="980" d="M6 158l33 143h754l-31 -143h-756zM131 719l33 143h289l55 250h170l-55 -250h292l-30 -143h-293l-64 -293h-170l64 293h-291z" />
<glyph unicode="&#xb2;" horiz-adv-x="704" d="M133 739q0 55 33 110.5t82 99.5l105 96l106 97q49 46 81.5 106.5t32.5 119.5q0 55 -33.5 84t-80.5 29q-45 0 -78 -25.5t-33 -69.5q0 -63 35 -86q-34 -32 -77 -32h-3q-29 0 -47 27.5t-18 76.5q0 63 62 112.5t171 49.5q225 0 225 -176q0 -88 -55 -169t-126 -132 t-148.5 -115t-108.5 -111q45 0 121 -12t108 -12q98 0 179 82q0 -8 1 -21.5t1 -19.5q0 -152 -144 -152q-49 0 -143 18.5t-123 18.5q-61 0 -121 -31q-4 25 -4 37z" />
<glyph unicode="&#xb3;" horiz-adv-x="710" d="M137 878.5q0 73.5 42 122t95 48.5q56 -1 76 -50q-51 -12 -76.5 -48t-25.5 -77q0 -45 33.5 -78.5t91.5 -33.5q76 0 130 70.5t54 152.5q0 137 -143 184q94 23 143 88.5t49 128.5q0 41 -30.5 69t-90.5 28q-57 0 -87.5 -26.5t-30.5 -70.5q0 -66 45 -75q-39 -37 -80 -37 q-33 0 -54.5 25.5t-21.5 66.5q0 74 68.5 121t177 47t160 -42t51.5 -112q0 -61 -38 -118.5t-116 -94.5q137 -41 137 -188q0 -106 -82 -192.5t-231 -86.5q-51 0 -98 9.5t-97.5 52.5t-50.5 116.5z" />
<glyph unicode="&#xb4;" horiz-adv-x="587" d="M227 1149l187 387h174l-248 -387h-113z" />
<glyph unicode="&#xb5;" horiz-adv-x="929" d="M-117 -340l289 1364h207l-150 -696q-8 -33 -8 -68q0 -57 25.5 -87t66.5 -30q63 0 125 61.5t82 162.5l139 657h207l-149 -696q-10 -41 -10 -92q0 -92 63 -93q100 0 195 224h75q-47 -121 -97 -202t-98 -117t-84 -48t-77 -12q-150 0 -164 196q-55 -98 -128 -147t-146 -49 q-47 0 -90 18l-64 -297z" />
<glyph unicode="&#xb6;" horiz-adv-x="1062" d="M133 1006q0 209 137.5 368.5t374.5 159.5q168 0 273.5 -82t105.5 -256q0 -61 -16 -147l-260 -1215h-148l166 789q-59 -20 -150 -35l-157 -754h-146l158 750q-162 20 -250 140t-88 282z" />
<glyph unicode="&#xb7;" horiz-adv-x="526" d="M72 546.5q0 71.5 49 121t119 49.5q72 0 121 -49.5t49 -120.5q0 -70 -49.5 -119t-121 -49t-119.5 48t-48 119.5z" />
<glyph unicode="&#xb8;" horiz-adv-x="464" d="M0 -389q36 65 81 65h1q27 0 75 -30.5t76 -30.5q43 0 73 28.5t30 63.5q0 39 -24.5 66.5t-75.5 27.5q-61 0 -127 -45l108 303l72 -47l-60 -147q66 16 109 16q127 0 127 -102q0 -104 -75 -164.5t-171 -60.5q-109 0 -219 57z" />
<glyph unicode="&#xb9;" horiz-adv-x="411" d="M166 707l158 690h-113l14 51q133 0 248 86l-188 -827h-119z" />
<glyph unicode="&#xba;" horiz-adv-x="622" d="M193 1130q0 55 15 118t48 128.5t95.5 108.5t144.5 43q109 0 127 -129q6 -4 10 -21q43 0 80 58l14 -25q-41 -92 -102 -115q-10 -150 -79 -247t-169 -97q-80 0 -132 44t-52 134zM315 1151q1 -113 105 -113q51 0 93 69t54 181q-43 0 -43 47q0 51 45 66q-12 65 -65 65h-2 q-78 0 -132.5 -108.5t-54.5 -206.5z" />
<glyph unicode="&#xbb;" horiz-adv-x="1062" d="M35 233l358 310l-280 286l82 91l368 -379l-442 -400zM461 233l358 310l-280 286l82 91l368 -379l-442 -400z" />
<glyph unicode="&#xbc;" horiz-adv-x="1353" d="M141 621l158 690h-113l15 51q133 0 248 86l-189 -827h-119zM180 0l791 1536h123l-791 -1536h-123zM721 307q14 39 59 128t76 173t31 156q0 37 -8 67q37 0 69.5 -30.5t32.5 -73.5q0 -59 -27.5 -119.5t-73.5 -130t-65 -106.5h229l101 444l131 16l-107 -460h76l-18 -64h-72 l-70 -305h-124l69 305h-309z" />
<glyph unicode="&#xbd;" horiz-adv-x="1376" d="M133 0l791 1536h123l-791 -1536h-123zM145 621l158 690h-113l15 51q133 0 248 86l-189 -827h-119zM684 43q0 63 45 129t110 121l130 111q65 57 110 126.5t45 141.5q0 55 -33.5 83.5t-80.5 28.5q-45 0 -78 -25.5t-33 -68.5q0 -63 35 -86q-35 -33 -80 -33q-29 0 -47.5 28 t-18.5 77q0 63 62.5 112.5t171.5 49.5q225 0 225 -176q0 -88 -55 -169t-126 -132.5t-148.5 -115t-108.5 -110.5q45 0 121 -12t108 -12q98 0 179 82q0 -8 1 -21.5t1 -19.5q0 -152 -144 -152q-47 0 -141 18.5t-125 18.5q-61 0 -121 -31q-4 25 -4 37z" />
<glyph unicode="&#xbe;" horiz-adv-x="1634" d="M94 790.5q0 73.5 42 122t95 48.5q56 -1 76 -50q-51 -12 -76.5 -48t-25.5 -77q0 -45 33.5 -78.5t91.5 -33.5q76 0 130 70.5t54 152.5q0 139 -143 184q94 23 143 88.5t49 128.5q0 41 -30.5 69t-90.5 28q-57 0 -87.5 -27t-30.5 -70q0 -66 45 -75q-41 -37 -80 -37 q-33 0 -54.5 25.5t-21.5 66.5q0 74 68.5 121t177 47t160 -42t51.5 -112q0 -61 -38 -118.5t-116 -94.5q137 -41 137 -188q0 -106 -82 -192.5t-231 -86.5q-51 0 -98 9.5t-97.5 52.5t-50.5 116.5zM442 0l791 1536h123l-791 -1536h-123zM1004 307q14 39 59 128t75.5 173 t30.5 156q0 37 -8 67q37 0 70 -30.5t33 -73.5q0 -59 -28 -119.5t-74 -130t-64 -106.5h229l100 444l132 16l-107 -460h76l-19 -64h-71l-70 -305h-125l70 305h-309z" />
<glyph unicode="&#xbf;" horiz-adv-x="872" d="M-98 -258q0 98 45 179t112.5 139.5t138 112.5t132 126t84.5 154h94q0 -80 -43 -152t-103 -130l-122 -117q-60 -60 -103 -139t-43 -169q0 -82 49.5 -122t124.5 -40q86 0 156 54.5t70 136.5q0 43 -35 84t-105 51q51 86 150 86q63 0 109 -45t46 -127q0 -123 -109.5 -226.5 t-320.5 -103.5q-162 0 -244.5 69.5t-82.5 178.5zM373 792.5q0 55.5 41 95.5t96 40q57 0 96 -39t39 -96q0 -55 -40 -96.5t-95 -41.5t-96 41t-41 96.5z" />
<glyph unicode="&#xc0;" horiz-adv-x="1234" d="M-80 692q0 109 125 173.5t311 64.5q27 0 84 -4q170 270 358.5 440t362.5 170q88 0 158 -29l-322 -1507h-223l156 735q-141 78 -367 103q-123 -244 -199.5 -499t-76.5 -433q0 -82 18 -139q-231 0 -231 217q0 143 88 381.5t229 480.5q-127 -4 -213 -39t-86 -88 q41 -14 41 -51q0 -82 -100 -82q-113 0 -113 106zM598 905q209 -35 344 -106l135 637q-102 -4 -230 -152t-249 -379zM831 2048h175l63 -387h-113z" />
<glyph unicode="&#xc1;" horiz-adv-x="1234" d="M-80 692q0 109 125 173.5t311 64.5q27 0 84 -4q170 270 358.5 440t362.5 170q88 0 158 -29l-322 -1507h-223l156 735q-141 78 -367 103q-123 -244 -199.5 -499t-76.5 -433q0 -82 18 -139q-231 0 -231 217q0 143 88 381.5t229 480.5q-127 -4 -213 -39t-86 -88 q41 -14 41 -51q0 -82 -100 -82q-113 0 -113 106zM598 905q209 -35 344 -106l135 637q-102 -4 -230 -152t-249 -379zM940 1661l186 387h174l-247 -387h-113z" />
<glyph unicode="&#xc2;" horiz-adv-x="1234" d="M-80 692q0 109 125 173.5t311 64.5q27 0 84 -4q170 270 358.5 440t362.5 170q88 0 158 -29l-322 -1507h-223l156 735q-141 78 -367 103q-123 -244 -199.5 -499t-76.5 -433q0 -82 18 -139q-231 0 -231 217q0 143 88 381.5t229 480.5q-127 -4 -213 -39t-86 -88 q41 -14 41 -51q0 -82 -100 -82q-113 0 -113 106zM598 905q209 -35 344 -106l135 637q-102 -4 -230 -152t-249 -379zM766 1661l412 342h43l125 -342h-46l-133 207l-331 -207h-70z" />
<glyph unicode="&#xc3;" horiz-adv-x="1234" d="M-80 692q0 109 125 173.5t311 64.5q27 0 84 -4q170 270 358.5 440t362.5 170q88 0 158 -29l-322 -1507h-223l156 735q-141 78 -367 103q-123 -244 -199.5 -499t-76.5 -433q0 -82 18 -139q-231 0 -231 217q0 143 88 381.5t229 480.5q-127 -4 -213 -39t-86 -88 q41 -14 41 -51q0 -82 -100 -82q-113 0 -113 106zM598 905q209 -35 344 -106l135 637q-102 -4 -230 -152t-249 -379zM752 1712q90 180 307 180q72 0 164 -29.5t141 -29.5q76 0 117 41h10q-16 -68 -105.5 -126t-191.5 -58q-63 0 -162.5 33.5t-146.5 33.5q-70 0 -123 -49z" />
<glyph unicode="&#xc4;" horiz-adv-x="1234" d="M-80 692q0 109 125 173.5t311 64.5q27 0 84 -4q170 270 358.5 440t362.5 170q88 0 158 -29l-322 -1507h-223l156 735q-141 78 -367 103q-123 -244 -199.5 -499t-76.5 -433q0 -82 18 -139q-231 0 -231 217q0 143 88 381.5t229 480.5q-127 -4 -213 -39t-86 -88 q41 -14 41 -51q0 -82 -100 -82q-113 0 -113 106zM598 905q209 -35 344 -106l135 637q-102 -4 -230 -152t-249 -379zM815 1827q0 45 31 76.5t76 31.5t76.5 -31.5t31.5 -76.5t-31.5 -76t-76.5 -31t-76 31t-31 76zM1151 1827q0 45 30.5 76.5t76 31.5t77 -31.5t31.5 -76.5 t-31.5 -76t-77 -31t-76 31t-30.5 76z" />
<glyph unicode="&#xc5;" horiz-adv-x="1234" d="M-80 692q0 109 125 173.5t311 64.5q27 0 84 -4q170 270 358.5 440t362.5 170q88 0 158 -29l-322 -1507h-223l156 735q-141 78 -367 103q-123 -244 -199.5 -499t-76.5 -433q0 -82 18 -139q-231 0 -231 217q0 143 88 381.5t229 480.5q-127 -4 -213 -39t-86 -88 q41 -14 41 -51q0 -82 -100 -82q-113 0 -113 106zM598 905q209 -35 344 -106l135 637q-102 -4 -230 -152t-249 -379zM934 1786q0 66 45 126t129 60q72 0 109.5 -44t37.5 -113q0 -74 -44 -123.5t-134 -49.5q-63 0 -103 42t-40 102zM1016 1790q0 -76 69 -76q95 0 95 94 q0 96 -68 97q-49 0 -72.5 -35t-23.5 -80z" />
<glyph unicode="&#xc6;" horiz-adv-x="1705" d="M107.5 835.5q76.5 57.5 170 76t195.5 18.5q31 0 76 -4q172 272 365.5 441t377.5 169q47 0 170 -19.5t172 -19.5q123 0 236 39q-31 -111 -86 -150.5t-135 -39.5q-92 0 -244 45l-117 -545h305l-28 -121h-303l-123 -582h450l-30 -143h-674l155 735q-145 78 -368 103 q-121 -244 -198 -499t-77 -433q0 -82 19 -139q-231 0 -232 219q0 143 87 382.5t229 477.5q-127 -4 -212 -39t-85 -88q41 -14 41 -51q0 -82 -101 -82q-112 0 -112 104q0 88 76.5 145.5zM707 905q209 -35 346 -106l135 637q-106 -16 -233 -161t-248 -370z" />
<glyph unicode="&#xc7;" horiz-adv-x="1036" d="M92 469q0 121 21.5 254t76 280.5t133 264t206.5 192.5t286 76q150 0 242 -67.5t92 -211.5q0 -184 -143 -184q-59 0 -86 37q31 18 59.5 81.5t28.5 133.5q0 68 -40 102.5t-112 34.5q-154 0 -275.5 -158.5t-181 -376.5t-59.5 -433q0 -82 11 -140.5t43 -115t98.5 -86 t166.5 -29.5q137 0 236.5 59.5t181.5 186.5l47 -21q-72 -158 -211 -255t-307 -120l-43 -108q66 16 109 16q127 0 127 -102q0 -104 -75 -164.5t-171 -60.5q-109 0 -219 57q36 65 81 65h1q27 0 75 -30.5t76 -30.5q43 0 73 28.5t30 63.5q0 39 -26 66.5t-75 27.5q-61 0 -127 -45 l76 211q-426 0 -426 502z" />
<glyph unicode="&#xc8;" horiz-adv-x="915" d="M25 324q0 164 102 311t276 219q-124 89 -124 244q0 168 130 305t318 137q127 0 210 -67.5t83 -188.5q0 -90 -45 -151.5t-107 -61.5q-55 0 -96 55q45 16 82 65.5t37 123.5q0 147 -137 147q-104 0 -193.5 -95t-89.5 -257q0 -221 164 -254q-174 -37 -272.5 -172t-98.5 -303 q0 -256 258 -256q137 0 254 71t178 173l47 -21q-78 -176 -244.5 -280.5t-355.5 -104.5q-186 0 -281 102.5t-95 258.5zM547 2048h174l63 -387h-112z" />
<glyph unicode="&#xc9;" horiz-adv-x="915" d="M25 324q0 164 102 311t276 219q-124 89 -124 244q0 168 130 305t318 137q127 0 210 -67.5t83 -188.5q0 -90 -45 -151.5t-107 -61.5q-55 0 -96 55q45 16 82 65.5t37 123.5q0 147 -137 147q-104 0 -193.5 -95t-89.5 -257q0 -221 164 -254q-174 -37 -272.5 -172t-98.5 -303 q0 -256 258 -256q137 0 254 71t178 173l47 -21q-78 -176 -244.5 -280.5t-355.5 -104.5q-186 0 -281 102.5t-95 258.5zM729 1661l186 387h175l-248 -387h-113z" />
<glyph unicode="&#xca;" horiz-adv-x="915" d="M25 324q0 164 102 311t276 219q-124 89 -124 244q0 168 130 305t318 137q127 0 210 -67.5t83 -188.5q0 -90 -45 -151.5t-107 -61.5q-55 0 -96 55q45 16 82 65.5t37 123.5q0 147 -137 147q-104 0 -193.5 -95t-89.5 -257q0 -221 164 -254q-174 -37 -272.5 -172t-98.5 -303 q0 -256 258 -256q137 0 254 71t178 173l47 -21q-78 -176 -244.5 -280.5t-355.5 -104.5q-186 0 -281 102.5t-95 258.5zM457 1661l411 342h43l125 -342h-45l-133 207l-332 -207h-69z" />
<glyph unicode="&#xcb;" horiz-adv-x="915" d="M25 324q0 164 102 311t276 219q-124 89 -124 244q0 168 130 305t318 137q127 0 210 -67.5t83 -188.5q0 -90 -45 -151.5t-107 -61.5q-55 0 -96 55q45 16 82 65.5t37 123.5q0 147 -137 147q-104 0 -193.5 -95t-89.5 -257q0 -221 164 -254q-174 -37 -272.5 -172t-98.5 -303 q0 -256 258 -256q137 0 254 71t178 173l47 -21q-78 -176 -244.5 -280.5t-355.5 -104.5q-186 0 -281 102.5t-95 258.5zM535 1827q0 45 30.5 76.5t75.5 31.5t77 -31.5t32 -76.5t-32 -76t-77 -31t-75.5 31t-30.5 76zM870 1827q0 45 31 76.5t76 31.5t76.5 -31.5t31.5 -76.5 t-31.5 -76t-76.5 -31t-76 31t-31 76z" />
<glyph unicode="&#xcc;" horiz-adv-x="827" d="M115 993q0 139 108.5 266t274.5 202t333 75q31 0 84 -4l-325 -1532h-225l301 1417q-174 -45 -277.5 -163.5t-103.5 -292.5q0 -102 49 -156q-219 0 -219 188zM569 2048h174l64 -387h-113z" />
<glyph unicode="&#xcd;" horiz-adv-x="827" d="M115 993q0 139 108.5 266t274.5 202t333 75q31 0 84 -4l-325 -1532h-225l301 1417q-174 -45 -277.5 -163.5t-103.5 -292.5q0 -102 49 -156q-219 0 -219 188zM723 1661l186 387h174l-247 -387h-113z" />
<glyph unicode="&#xce;" horiz-adv-x="827" d="M115 993q0 139 108.5 266t274.5 202t333 75q31 0 84 -4l-325 -1532h-225l301 1417q-174 -45 -277.5 -163.5t-103.5 -292.5q0 -102 49 -156q-219 0 -219 188zM524 1661l412 342h43l125 -342h-45l-133 207l-332 -207h-70z" />
<glyph unicode="&#xcf;" horiz-adv-x="827" d="M115 993q0 139 108.5 266t274.5 202t333 75q31 0 84 -4l-325 -1532h-225l301 1417q-174 -45 -277.5 -163.5t-103.5 -292.5q0 -102 49 -156q-219 0 -219 188zM524 1827q0 45 31 76.5t76 31.5t76.5 -31.5t31.5 -76.5t-31.5 -76t-76.5 -31t-76 31t-31 76zM860 1827 q0 45 31 76.5t76 31.5t76.5 -31.5t31.5 -76.5t-31.5 -76t-76.5 -31t-76 31t-31 76z" />
<glyph unicode="&#xd0;" horiz-adv-x="1441" d="M115 995q0 211 226 376t527 165q195 0 323 -82t180 -212t52 -308q0 -221 -84 -445.5t-218 -370t-269 -145.5q-125 0 -258 119l-19 -92h-225l156 721h-135l32 125h129l101 467l229 30l-106 -497h174l-33 -125h-168l-121 -561q66 -53 133 -54q109 0 197 90.5t141.5 231.5 t81 298t27.5 302q0 236 -88 335t-275 99q-223 0 -392 -140.5t-169 -371.5q0 -88 70 -145q-219 0 -219 190z" />
<glyph unicode="&#xd1;" horiz-adv-x="1458" d="M123 1004q0 193 173 362.5t398 169.5q78 0 137 -29l281 -1274l285 1299h157l-348 -1532h-262l-258 1104l-254 -1104h-153l321 1415q-154 -45 -241 -158.5t-87 -295.5q0 -92 50 -156q-100 0 -149.5 46t-49.5 153zM754 1712q90 180 307 180q72 0 164 -29.5t141 -29.5 q76 0 117 41h10q-16 -68 -105.5 -126t-191.5 -58q-63 0 -162.5 33.5t-146.5 33.5q-72 0 -123 -49z" />
<glyph unicode="&#xd2;" horiz-adv-x="1427" d="M111 977q0 139 115.5 270t306 210t393.5 79q495 0 495 -516q0 -127 -26.5 -263t-86 -274.5t-144.5 -248t-213 -178t-279 -68.5q-373 0 -373 411q0 131 36 291t101.5 312.5t177 255t242.5 102.5q56 -1 105 -17q-156 -82 -286 -393t-130 -559t180 -248q109 0 218.5 143.5 t178 369t68.5 448.5q0 195 -68.5 276.5t-244.5 81.5q-240 0 -420.5 -151.5t-180.5 -392.5q0 -86 21 -113q-186 0 -186 172zM780 2048h174l64 -387h-113z" />
<glyph unicode="&#xd3;" horiz-adv-x="1427" d="M111 977q0 139 115.5 270t306 210t393.5 79q495 0 495 -516q0 -127 -26.5 -263t-86 -274.5t-144.5 -248t-213 -178t-279 -68.5q-373 0 -373 411q0 131 36 291t101.5 312.5t177 255t242.5 102.5q56 -1 105 -17q-156 -82 -286 -393t-130 -559t180 -248q109 0 218.5 143.5 t178 369t68.5 448.5q0 195 -68.5 276.5t-244.5 81.5q-240 0 -420.5 -151.5t-180.5 -392.5q0 -86 21 -113q-186 0 -186 172zM954 1661l187 387h174l-248 -387h-113z" />
<glyph unicode="&#xd4;" horiz-adv-x="1427" d="M111 977q0 139 115.5 270t306 210t393.5 79q495 0 495 -516q0 -127 -26.5 -263t-86 -274.5t-144.5 -248t-213 -178t-279 -68.5q-373 0 -373 411q0 131 36 291t101.5 312.5t177 255t242.5 102.5q56 -1 105 -17q-156 -82 -286 -393t-130 -559t180 -248q109 0 218.5 143.5 t178 369t68.5 448.5q0 195 -68.5 276.5t-244.5 81.5q-240 0 -420.5 -151.5t-180.5 -392.5q0 -86 21 -113q-186 0 -186 172zM727 1661l412 342h43l125 -342h-45l-134 207l-331 -207h-70z" />
<glyph unicode="&#xd5;" horiz-adv-x="1427" d="M111 977q0 139 115.5 270t306 210t393.5 79q495 0 495 -516q0 -127 -26.5 -263t-86 -274.5t-144.5 -248t-213 -178t-279 -68.5q-373 0 -373 411q0 131 36 291t101.5 312.5t177 255t242.5 102.5q56 -1 105 -17q-156 -82 -286 -393t-130 -559t180 -248q109 0 218.5 143.5 t178 369t68.5 448.5q0 195 -68.5 276.5t-244.5 81.5q-240 0 -420.5 -151.5t-180.5 -392.5q0 -86 21 -113q-186 0 -186 172zM713 1712q90 180 307 180q72 0 164 -29.5t141 -29.5q76 0 117 41h10q-16 -68 -105.5 -126t-191.5 -58q-63 0 -162.5 33.5t-146.5 33.5 q-72 0 -123 -49z" />
<glyph unicode="&#xd6;" horiz-adv-x="1427" d="M111 977q0 139 115.5 270t306 210t393.5 79q495 0 495 -516q0 -127 -26.5 -263t-86 -274.5t-144.5 -248t-213 -178t-279 -68.5q-373 0 -373 411q0 131 36 291t101.5 312.5t177 255t242.5 102.5q56 -1 105 -17q-156 -82 -286 -393t-130 -559t180 -248q109 0 218.5 143.5 t178 369t68.5 448.5q0 195 -68.5 276.5t-244.5 81.5q-240 0 -420.5 -151.5t-180.5 -392.5q0 -86 21 -113q-186 0 -186 172zM829 1827q0 45 31 76.5t76 31.5t76.5 -31.5t31.5 -76.5t-31.5 -76t-76.5 -31t-76 31t-31 76zM1165 1827q0 45 31 76.5t76 31.5t76.5 -31.5 t31.5 -76.5t-31.5 -76t-76.5 -31t-76 31t-31 76z" />
<glyph unicode="&#xd7;" horiz-adv-x="821" d="M78 750l104 106l224 -227l196 196l98 -98l-196 -197l192 -190l-102 -107l-195 193l-217 -217l-98 98l217 217z" />
<glyph unicode="&#xd8;" horiz-adv-x="1404" d="M106 977q0 139 116 270t306.5 210t393.5 79q43 0 65 -2v8h66l-2 -16q366 -63 366 -506q0 -123 -24.5 -254t-80 -264t-134 -241.5t-196.5 -182.5t-257 -86l-29 -137h-65l28 133q-364 6 -364 409q0 133 36 293t101.5 312.5t177 255t242.5 102.5q49 0 94 -14l23 108 q-39 8 -97 8q-240 0 -420 -151.5t-180 -392.5q0 -86 21 -113q-186 0 -187 172zM541 391q0 -229 151 -246l252 1192q-154 -90 -278.5 -396t-124.5 -550zM758 147q160 41 294 338t134 619q0 143 -35 223t-119 111z" />
<glyph unicode="&#xd9;" horiz-adv-x="1576" d="M113 993q0 139 108.5 266t278.5 202t346 75q45 0 98 -10l-75 -274l-63 -236l-49 -184q-28 -103 -41.5 -159.5t-26.5 -120t-17 -105t-4 -80.5q0 -117 35.5 -170.5t146.5 -53.5q82 0 137 25t112.5 101.5t109 229t104.5 400.5l137 633h221l-135 -639q-43 -205 -81 -336 t-93 -250t-126 -183.5t-172 -101t-239 -36.5q-215 0 -305 82t-90 249q0 55 7 119t30 166l33 151q10 48 50 202.5t48 191.5l74 301q-190 -37 -301 -170t-111 -330q0 -29 2 -51.5t6 -36.5t9 -24l8 -18q4 -9 6 -11q-76 0 -127 48t-51 138zM1028 2048h174l64 -387h-113z" />
<glyph unicode="&#xda;" horiz-adv-x="1576" d="M113 993q0 139 108.5 266t278.5 202t346 75q45 0 98 -10l-75 -274l-63 -236l-49 -184q-28 -103 -41.5 -159.5t-26.5 -120t-17 -105t-4 -80.5q0 -117 35.5 -170.5t146.5 -53.5q82 0 137 25t112.5 101.5t109 229t104.5 400.5l137 633h221l-135 -639q-43 -205 -81 -336 t-93 -250t-126 -183.5t-172 -101t-239 -36.5q-215 0 -305 82t-90 249q0 55 7 119t30 166l33 151q10 48 50 202.5t48 191.5l74 301q-190 -37 -301 -170t-111 -330q0 -29 2 -51.5t6 -36.5t9 -24l8 -18q4 -9 6 -11q-76 0 -127 48t-51 138zM1141 1661l186 387h174l-248 -387 h-112z" />
<glyph unicode="&#xdb;" horiz-adv-x="1576" d="M113 993q0 139 108.5 266t278.5 202t346 75q45 0 98 -10l-75 -274l-63 -236l-49 -184q-28 -103 -41.5 -159.5t-26.5 -120t-17 -105t-4 -80.5q0 -117 35.5 -170.5t146.5 -53.5q82 0 137 25t112.5 101.5t109 229t104.5 400.5l137 633h221l-135 -639q-43 -205 -81 -336 t-93 -250t-126 -183.5t-172 -101t-239 -36.5q-215 0 -305 82t-90 249q0 55 7 119t30 166l33 151q10 48 50 202.5t48 191.5l74 301q-190 -37 -301 -170t-111 -330q0 -29 2 -51.5t6 -36.5t9 -24l8 -18q4 -9 6 -11q-76 0 -127 48t-51 138zM930 1661l411 342h43l125 -342h-45 l-133 207l-332 -207h-69z" />
<glyph unicode="&#xdc;" horiz-adv-x="1576" d="M113 993q0 139 108.5 266t278.5 202t346 75q45 0 98 -10l-75 -274l-63 -236l-49 -184q-28 -103 -41.5 -159.5t-26.5 -120t-17 -105t-4 -80.5q0 -117 35.5 -170.5t146.5 -53.5q82 0 137 25t112.5 101.5t109 229t104.5 400.5l137 633h221l-135 -639q-43 -205 -81 -336 t-93 -250t-126 -183.5t-172 -101t-239 -36.5q-215 0 -305 82t-90 249q0 55 7 119t30 166l33 151q10 48 50 202.5t48 191.5l74 301q-190 -37 -301 -170t-111 -330q0 -29 2 -51.5t6 -36.5t9 -24l8 -18q4 -9 6 -11q-76 0 -127 48t-51 138zM1012 1827q0 45 30.5 76.5t75.5 31.5 t77 -31.5t32 -76.5t-32 -76t-77 -31t-75.5 31t-30.5 76zM1348 1827q0 45 30.5 76.5t75.5 31.5t77 -31.5t32 -76.5t-32 -76t-77 -31t-75.5 31t-30.5 76z" />
<glyph unicode="&#xdd;" horiz-adv-x="1257" d="M121 993q0 219 180 381t432 162q31 0 84 -4l193 -797l329 791h95l-398 -895l-135 -631h-223l135 631l-213 831q-172 -45 -261 -178t-89 -285q0 -119 49 -194q-178 0 -178 188zM1122 1661l187 387h174l-248 -387h-113z" />
<glyph unicode="&#xde;" horiz-adv-x="1230" d="M70 768q0 170 146 311.5t359 200.5l50 223l229 31l-47 -223q221 -2 341 -120t120 -286q0 -207 -165 -377t-427 -170q-47 0 -74 2l-76 -360h-225l260 1210q-160 -49 -253 -176t-93 -311q0 -35 4 -61.5t8 -38t9 -22.5l8 -15q-174 0 -174 182zM614 420h48q180 0 310 167 t130 357q0 125 -72 205t-239 86z" />
<glyph unicode="&#xdf;" horiz-adv-x="921" d="M-139 -512l340 1597q74 348 372 349q135 0 208 -76t73 -184q0 -92 -50 -175.5t-138 -124.5q198 -68 198 -288q0 -149 -39 -267t-100 -184.5t-125.5 -100.5t-124.5 -34q-23 0 -67 4l16 80q78 0 137.5 50t92 130t49 164t16.5 166t-50.5 145.5t-152.5 85.5l25 78 q98 23 155.5 97.5t57.5 158.5q0 76 -32 114t-83 38q-66 0 -127 -61t-84 -165l-326 -1523z" />
<glyph unicode="&#xe0;" d="M10 317q0 109 35 230t97.5 231.5t166 183t226.5 72.5q141 0 167 -108l21 98h207l-150 -696q-10 -41 -10 -92q0 -92 64 -93q100 0 194 224h76q-47 -121 -97.5 -202t-98.5 -117t-84 -48t-76 -12q-150 0 -164 200q-49 -88 -133 -144t-179 -56q-111 0 -186.5 81t-75.5 248z M229 346q0 -203 129 -203q66 0 136.5 66.5t89.5 157.5l98 464q-6 37 -32.5 64t-69.5 27q-104 0 -188.5 -103.5t-123.5 -232.5t-39 -240zM426 1536h174l64 -387h-113z" />
<glyph unicode="&#xe1;" d="M10 317q0 109 35 230t97.5 231.5t166 183t226.5 72.5q141 0 167 -108l21 98h207l-150 -696q-10 -41 -10 -92q0 -92 64 -93q100 0 194 224h76q-47 -121 -97.5 -202t-98.5 -117t-84 -48t-76 -12q-150 0 -164 200q-49 -88 -133 -144t-179 -56q-111 0 -186.5 81t-75.5 248z M229 346q0 -203 129 -203q66 0 136.5 66.5t89.5 157.5l98 464q-6 37 -32.5 64t-69.5 27q-104 0 -188.5 -103.5t-123.5 -232.5t-39 -240zM518 1149l187 387h174l-248 -387h-113z" />
<glyph unicode="&#xe2;" d="M10 317q0 109 35 230t97.5 231.5t166 183t226.5 72.5q141 0 167 -108l21 98h207l-150 -696q-10 -41 -10 -92q0 -92 64 -93q100 0 194 224h76q-47 -121 -97.5 -202t-98.5 -117t-84 -48t-76 -12q-150 0 -164 200q-49 -88 -133 -144t-179 -56q-111 0 -186.5 81t-75.5 248z M229 346q0 -203 129 -203q66 0 136.5 66.5t89.5 157.5l98 464q-6 37 -32.5 64t-69.5 27q-104 0 -188.5 -103.5t-123.5 -232.5t-39 -240zM303 1149l412 342h43l125 -342h-45l-133 207l-332 -207h-70z" />
<glyph unicode="&#xe3;" d="M10 317q0 109 35 230t97.5 231.5t166 183t226.5 72.5q141 0 167 -108l21 98h207l-150 -696q-10 -41 -10 -92q0 -92 64 -93q100 0 194 224h76q-47 -121 -97.5 -202t-98.5 -117t-84 -48t-76 -12q-150 0 -164 200q-49 -88 -133 -144t-179 -56q-111 0 -186.5 81t-75.5 248z M229 346q0 -203 129 -203q66 0 136.5 66.5t89.5 157.5l98 464q-6 37 -32.5 64t-69.5 27q-104 0 -188.5 -103.5t-123.5 -232.5t-39 -240zM256 1200q90 180 307 180q72 0 164 -29.5t141 -29.5q76 0 117 41h10q-16 -68 -105 -126t-192 -58q-63 0 -162.5 33.5t-146.5 33.5 q-70 0 -123 -49z" />
<glyph unicode="&#xe4;" d="M10 317q0 109 35 230t97.5 231.5t166 183t226.5 72.5q141 0 167 -108l21 98h207l-150 -696q-10 -41 -10 -92q0 -92 64 -93q100 0 194 224h76q-47 -121 -97.5 -202t-98.5 -117t-84 -48t-76 -12q-150 0 -164 200q-49 -88 -133 -144t-179 -56q-111 0 -186.5 81t-75.5 248z M229 346q0 -203 129 -203q68 0 137.5 66.5t88.5 157.5l98 464q-6 37 -32.5 64t-69.5 27q-104 0 -188.5 -103.5t-123.5 -232.5t-39 -240zM422 1315q0 45 30.5 76.5t75.5 31.5t77 -31.5t32 -76.5t-32 -76t-77 -31t-75.5 31t-30.5 76zM758 1315q0 45 30.5 76.5t75.5 31.5 t77 -31.5t32 -76.5t-32 -76t-77 -31t-75.5 31t-30.5 76z" />
<glyph unicode="&#xe5;" d="M10 317q0 109 35 230t97.5 231.5t166 183t226.5 72.5q141 0 167 -108l21 98h207l-150 -696q-10 -41 -10 -92q0 -92 64 -93q100 0 194 224h76q-47 -121 -97.5 -202t-98.5 -117t-84 -48t-76 -12q-150 0 -164 200q-49 -88 -133 -144t-179 -56q-111 0 -186.5 81t-75.5 248z M229 346q0 -203 129 -203q68 0 137.5 66.5t88.5 157.5l98 464q-6 37 -32.5 64t-69.5 27q-104 0 -188.5 -103.5t-123.5 -232.5t-39 -240zM514 1274q0 66 45 126t129 60q72 0 110 -44t38 -113q0 -74 -44 -123.5t-135 -49.5q-63 0 -103 42t-40 102zM596 1278q0 -76 70 -76 q94 0 94 94q0 96 -68 97q-49 0 -72.5 -35t-23.5 -80z" />
<glyph unicode="&#xe6;" horiz-adv-x="1271" d="M18 254q0 340 455 340q68 0 125 -8q43 100 43 180q0 76 -36 123t-107 47q-141 0 -248 -121l-57 59q154 160 344 160q139 0 262 -94q129 94 254 94q219 0 219 -211q0 -170 -133 -270t-375 -119q-6 -68 -6 -88q0 -106 41 -154.5t137 -48.5q221 0 371 224h65 q-86 -160 -231.5 -269.5t-302.5 -109.5q-207 0 -269 194q-49 -92 -113.5 -143t-176.5 -51q-109 0 -185 59t-76 207zM233 289q0 -145 117 -146q76 0 137.5 91.5t81.5 252.5q-14 2 -34 2q-119 0 -210.5 -56t-91.5 -144zM774 514q172 18 272.5 105.5t100.5 224.5q0 90 -76 90 q-106 0 -186 -124t-111 -296z" />
<glyph unicode="&#xe7;" horiz-adv-x="745" d="M16 317q0 96 29 211t87 233t167 195.5t248 77.5q215 0 215 -194q0 -74 -28.5 -123t-80.5 -49q-45 0 -67 43q25 16 43 57t18 76q0 37 -23.5 59.5t-68.5 22.5q-90 0 -166 -98.5t-112.5 -229.5t-36.5 -252q0 -109 41 -156t139 -47q227 0 360 224h70q-84 -158 -224.5 -265.5 t-291.5 -113.5l-49 -123q66 16 108 16q127 0 127 -102q0 -104 -74.5 -164.5t-171.5 -60.5q-109 0 -219 57q36 65 81 65h1q27 0 75 -30.5t77 -30.5q43 0 72.5 28.5t29.5 63.5q0 39 -25.5 66.5t-74.5 27.5q-61 0 -127 -45l84 238q-102 20 -167 100t-65 223z" />
<glyph unicode="&#xe8;" horiz-adv-x="753" d="M16 315q0 74 17.5 164t57.5 189.5t97.5 179.5t148.5 133t198 53q219 0 219 -211q0 -172 -136.5 -280.5t-375.5 -132.5q-2 -23 -2 -64q0 -106 41 -154.5t137 -48.5q221 0 370 224h66q-86 -160 -231.5 -269.5t-303.5 -109.5q-129 0 -216 81t-87 246zM252 489 q172 27 274.5 122.5t102.5 232.5q0 90 -76 90q-106 0 -188 -134t-113 -311zM362 1536h175l63 -387h-113z" />
<glyph unicode="&#xe9;" horiz-adv-x="753" d="M16 315q0 74 17.5 164t57.5 189.5t97.5 179.5t148.5 133t198 53q219 0 219 -211q0 -172 -136.5 -280.5t-375.5 -132.5q-2 -23 -2 -64q0 -106 41 -154.5t137 -48.5q221 0 370 224h66q-86 -160 -231.5 -269.5t-303.5 -109.5q-129 0 -216 81t-87 246zM252 489 q172 27 274.5 122.5t102.5 232.5q0 90 -76 90q-106 0 -188 -134t-113 -311zM506 1149l186 387h174l-248 -387h-112z" />
<glyph unicode="&#xea;" horiz-adv-x="753" d="M16 315q0 74 17.5 164t57.5 189.5t97.5 179.5t148.5 133t198 53q219 0 219 -211q0 -172 -136.5 -280.5t-375.5 -132.5q-2 -23 -2 -64q0 -106 41 -154.5t137 -48.5q221 0 370 224h66q-86 -160 -231.5 -269.5t-303.5 -109.5q-129 0 -216 81t-87 246zM252 489 q172 27 274.5 122.5t102.5 232.5q0 90 -76 90q-106 0 -188 -134t-113 -311zM260 1149l412 342h43l125 -342h-45l-133 207l-332 -207h-70z" />
<glyph unicode="&#xeb;" horiz-adv-x="753" d="M16 315q0 74 17.5 164t57.5 189.5t97.5 179.5t148.5 133t198 53q219 0 219 -211q0 -172 -136.5 -280.5t-375.5 -132.5q-2 -23 -2 -64q0 -106 41 -154.5t137 -48.5q221 0 370 224h66q-86 -160 -231.5 -269.5t-303.5 -109.5q-129 0 -216 81t-87 246zM252 489 q172 27 274.5 122.5t102.5 232.5q0 90 -76 90q-106 0 -188 -134t-113 -311zM317 1315q0 45 31 76.5t76 31.5t76.5 -31.5t31.5 -76.5t-31.5 -76t-76.5 -31t-76 31t-31 76zM653 1315q0 45 31 76.5t76 31.5t76.5 -31.5t31.5 -76.5t-31.5 -76t-76.5 -31t-76 31t-31 76z" />
<glyph unicode="&#xec;" horiz-adv-x="444" d="M16 215q0 63 19 152l139 657h207l-150 -696q-10 -41 -10 -92q0 -92 64 -93q100 0 194 224h76q-47 -121 -97 -202t-98.5 -117t-84 -48t-76.5 -12q-182 0 -183 227zM90 1536h174l64 -387h-113z" />
<glyph unicode="&#xed;" horiz-adv-x="444" d="M16 215q0 63 19 152l139 657h207l-150 -696q-10 -41 -10 -92q0 -92 64 -93q100 0 194 224h76q-47 -121 -97 -202t-98.5 -117t-84 -48t-76.5 -12q-182 0 -183 227zM244 1149l186 387h174l-248 -387h-112z" />
<glyph unicode="&#xee;" horiz-adv-x="444" d="M16 215q0 63 19 152l139 657h207l-150 -696q-10 -41 -10 -92q0 -92 64 -93q100 0 194 224h76q-47 -121 -97 -202t-98.5 -117t-84 -48t-76.5 -12q-182 0 -183 227zM25 1149l411 342h43l125 -342h-45l-133 207l-332 -207h-69z" />
<glyph unicode="&#xef;" horiz-adv-x="444" d="M16 215q0 63 19 152l139 657h207l-150 -696q-10 -41 -10 -92q0 -92 64 -93q100 0 194 224h76q-47 -121 -97 -202t-98.5 -117t-84 -48t-76.5 -12q-182 0 -183 227zM47 1315q0 45 31 76.5t76 31.5t76.5 -31.5t31.5 -76.5t-31.5 -76t-76.5 -31t-76 31t-31 76zM383 1315 q0 45 30.5 76.5t76 31.5t77 -31.5t31.5 -76.5t-31.5 -76t-77 -31t-76 31t-30.5 76z" />
<glyph unicode="&#xf0;" d="M10 317q0 109 35 230t97.5 231.5t166 183t226.5 72.5q141 0 167 -110l15 69q24 122 24 186v5v14l-147 -20v61l141 21q-18 86 -82 174h72q123 -80 172 -152l141 21v-62l-112 -16q18 -43 18 -101q0 -35 -10 -86l-154 -710q-10 -41 -10 -92q0 -92 64 -93q100 1 194 224h76 q-47 -121 -97.5 -202t-98.5 -117t-84 -48t-76 -12q-150 0 -164 200q-49 -88 -133 -144t-179 -56q-111 0 -186.5 81t-75.5 248zM229 346q0 -203 129 -203q68 0 137.5 66.5t88.5 157.5l98 464q-6 37 -31.5 64t-70.5 27q-104 0 -188.5 -103.5t-123.5 -232.5t-39 -240z" />
<glyph unicode="&#xf1;" horiz-adv-x="956" d="M-45 0l217 1024h207l-33 -154q121 164 279 164q211 0 211 -231q0 -94 -49.5 -286.5t-49.5 -272.5q0 -100 62 -101q96 0 192 224h76q-47 -123 -97 -204t-97.5 -116t-82 -47t-73.5 -12q-100 0 -148.5 63.5t-48.5 167.5q0 94 49 286.5t49 260.5q0 113 -90 113 q-127 0 -227 -220l-141 -659h-205zM215 1200q90 180 307 180q72 0 164 -29.5t141 -29.5q76 0 117 41h10q-16 -68 -105 -126t-192 -58q-63 0 -162.5 33.5t-146.5 33.5q-70 0 -123 -49z" />
<glyph unicode="&#xf2;" horiz-adv-x="858" d="M16 311q0 78 14.5 166t53.5 189.5t97.5 181.5t154.5 133t217 53q227 0 231 -323q20 -4 33 -4q63 0 155.5 40.5t147.5 86.5l19 -56q-119 -137 -359 -168q-18 -272 -139 -447t-305 -175q-143 0 -231.5 78.5t-88.5 244.5zM242 348q0 -109 38.5 -157t133 -48t170 125 t96.5 336q-82 0 -82 84q0 94 88 105q-14 129 -123 129q-96 0 -173 -102.5t-112.5 -231.5t-35.5 -240zM367 1536h174l63 -387h-112z" />
<glyph unicode="&#xf3;" horiz-adv-x="858" d="M16 311q0 78 14.5 166t53.5 189.5t97.5 181.5t154.5 133t217 53q227 0 231 -323q10 -4 35 -4q63 0 154.5 40.5t146.5 86.5l19 -56q-119 -137 -359 -168q-18 -272 -139 -447t-305 -175q-143 0 -231.5 78.5t-88.5 244.5zM242 348q0 -109 38.5 -157t133 -48t170 125 t96.5 336q-82 0 -82 84q0 94 88 105q-14 129 -123 129q-96 0 -173 -102.5t-112.5 -231.5t-35.5 -240zM506 1149l186 387h174l-248 -387h-112z" />
<glyph unicode="&#xf4;" horiz-adv-x="858" d="M16 311q0 78 14.5 166t53.5 189.5t97.5 181.5t154.5 133t217 53q227 0 231 -323q6 -2 23 -2q66 0 163 39.5t150 85.5l19 -56q-119 -137 -359 -168q-18 -272 -139 -447t-305 -175q-143 0 -231.5 78.5t-88.5 244.5zM242 348q0 -109 38.5 -157t133 -48t170 125t96.5 336 q-82 0 -82 84q0 94 88 105q-14 129 -123 129q-96 0 -173 -102.5t-112.5 -231.5t-35.5 -240zM252 1149l412 342h43l124 -342h-45l-133 207l-331 -207h-70z" />
<glyph unicode="&#xf5;" horiz-adv-x="858" d="M16 311q0 78 14.5 166t53.5 189.5t97.5 181.5t154.5 133t217 53q227 0 231 -323q16 -4 31 -4q63 0 156.5 40.5t148.5 86.5l19 -56q-119 -137 -359 -168q-18 -272 -139 -447t-305 -175q-143 0 -231.5 78.5t-88.5 244.5zM188 1200q90 180 308 180q72 0 164 -29.5t141 -29.5 q76 0 117 41h10q-16 -68 -105.5 -126t-191.5 -58q-63 0 -162.5 33.5t-146.5 33.5q-72 0 -123 -49zM242 348q0 -109 38.5 -157t133 -48t170 125t96.5 336q-82 0 -82 84q0 94 88 105q-14 129 -123 129q-96 0 -173 -102.5t-112.5 -231.5t-35.5 -240z" />
<glyph unicode="&#xf6;" horiz-adv-x="858" d="M16 311q0 78 14.5 166t53.5 189.5t97.5 181.5t154.5 133t217 53q227 0 231 -323q14 -6 37 -6q66 0 155 41.5t144 87.5l19 -56q-119 -137 -359 -168q-18 -272 -139 -447t-305 -175q-143 0 -231.5 78.5t-88.5 244.5zM242 348q0 -109 38.5 -157t133 -48t170 125t96.5 336 q-82 0 -82 84q0 94 88 105q-14 129 -123 129q-96 0 -173 -102.5t-112.5 -231.5t-35.5 -240zM295 1315q0 45 30.5 76.5t75.5 31.5t77 -31.5t32 -76.5t-32 -76t-77 -31t-75.5 31t-30.5 76zM631 1315q0 45 30.5 76.5t75.5 31.5t77 -31.5t32 -76.5t-32 -76t-77 -31t-75.5 31 t-30.5 76z" />
<glyph unicode="&#xf7;" horiz-adv-x="860" d="M23 440l32 144h717l-31 -144h-718zM242 137q0 55 40 96t95 41t96 -40.5t41 -96t-41 -95.5t-96 -40q-57 0 -96 39t-39 96zM365 877q0 55 39.5 96t95 41t96.5 -41t41 -96.5t-41 -95.5t-96 -40q-57 0 -96 39.5t-39 96.5z" />
<glyph unicode="&#xf8;" horiz-adv-x="858" d="M16 311q0 76 13.5 161t50.5 183.5t91 177t144.5 135t200.5 64.5l43 207h107l-45 -213q160 -43 163 -315q10 -4 37 -4q63 0 153.5 40.5t145.5 86.5l19 -56q-119 -137 -359 -168q-16 -256 -125.5 -428t-279.5 -192l-43 -201h-107l43 203q-117 16 -184.5 95t-67.5 224z M242 348q0 -109 38.5 -157t133 -48t170 125t96.5 336q-82 0 -82 84q0 94 88 105q-14 129 -123 129q-96 0 -173 -102.5t-112.5 -231.5t-35.5 -240z" />
<glyph unicode="&#xf9;" horiz-adv-x="929" d="M20 262q0 49 13 105l139 657h207l-150 -696q-8 -33 -8 -68q0 -57 25.5 -87t66.5 -30q63 0 125 61.5t82 162.5l139 657h207l-149 -696q-10 -41 -10 -92q0 -92 63 -93q100 0 195 224h75q-47 -121 -97 -202t-98 -117t-84 -48t-77 -12q-150 0 -164 196q-55 -98 -128 -147 t-146 -49q-94 0 -160 74.5t-66 199.5zM326 1536h174l63 -387h-112z" />
<glyph unicode="&#xfa;" horiz-adv-x="929" d="M20 262q0 49 13 105l139 657h207l-150 -696q-8 -33 -8 -68q0 -57 25.5 -87t66.5 -30q63 0 125 61.5t82 162.5l139 657h207l-149 -696q-10 -41 -10 -92q0 -92 63 -93q100 0 195 224h75q-47 -121 -97 -202t-98 -117t-84 -48t-77 -12q-150 0 -164 196q-55 -98 -128 -147 t-146 -49q-94 0 -160 74.5t-66 199.5zM465 1149l186 387h174l-247 -387h-113z" />
<glyph unicode="&#xfb;" horiz-adv-x="929" d="M20 262q0 49 13 105l139 657h207l-150 -696q-8 -33 -8 -68q0 -57 25.5 -87t66.5 -30q63 0 125 61.5t82 162.5l139 657h207l-149 -696q-10 -41 -10 -92q0 -92 63 -93q100 0 195 224h75q-47 -121 -97 -202t-98 -117t-84 -48t-77 -12q-150 0 -164 196q-55 -98 -128 -147 t-146 -49q-94 0 -160 74.5t-66 199.5zM264 1149l412 342h43l125 -342h-45l-133 207l-332 -207h-70z" />
<glyph unicode="&#xfc;" horiz-adv-x="929" d="M20 262q0 49 13 105l139 657h207l-150 -696q-8 -33 -8 -68q0 -57 25.5 -87t66.5 -30q63 0 125 61.5t82 162.5l139 657h207l-149 -696q-10 -41 -10 -92q0 -92 63 -93q100 0 195 224h75q-47 -121 -97 -202t-98 -117t-84 -48t-77 -12q-150 0 -164 196q-55 -98 -128 -147 t-146 -49q-94 0 -160 74.5t-66 199.5zM293 1315q0 45 30.5 76.5t75.5 31.5t77 -31.5t32 -76.5t-32 -76t-77 -31t-75.5 31t-30.5 76zM629 1315q0 45 30.5 76.5t75.5 31.5t77 -31.5t32 -76.5t-32 -76t-77 -31t-75.5 31t-30.5 76z" />
<glyph unicode="&#xfd;" horiz-adv-x="929" d="M20 262q0 49 13 105l139 657h207l-150 -696q-8 -33 -8 -68q0 -57 25.5 -87t66.5 -30q61 0 123 58.5t84 165.5l139 657h205l-209 -983q119 37 189.5 107.5t120.5 218.5h75q-68 -201 -156.5 -282t-244.5 -118l-27 -131q-43 -207 -106.5 -277.5t-171.5 -70.5 q-100 0 -162.5 45t-62.5 139q0 92 95 169t232 132l27 129q-95 -114 -215 -114h-2q-94 0 -160 74.5t-66 199.5zM188 -326q0 -35 20.5 -57.5t55.5 -22.5q53 0 84 59.5t58 178.5l14 66q-111 -49 -171.5 -107.5t-60.5 -116.5zM463 1149l186 387h174l-248 -387h-112z" />
<glyph unicode="&#xfe;" horiz-adv-x="968" d="M-154 -512l320 1505q24 107 24 185v6q0 133 -88 250h48q68 -45 107.5 -84t74.5 -120t35 -190q0 -53 -9 -100q109 94 234 94q246 0 246 -342q0 -86 -14.5 -175t-50.5 -186.5t-90 -172t-142 -122.5t-197 -48q-102 0 -164 98l-114 -545zM203 188q42 -69 106 -69h2 q86 0 152.5 60.5t101.5 153.5t52.5 184t17.5 171q0 113 -41 163t-100 50q-84 0 -160 -96z" />
<glyph unicode="&#xff;" horiz-adv-x="929" d="M20 262q0 49 13 105l139 657h207l-150 -696q-8 -33 -8 -68q0 -57 25.5 -87t66.5 -30q63 0 125 61.5t82 162.5l139 657h205l-209 -983q119 37 189.5 107.5t120.5 218.5h75q-68 -201 -156.5 -282t-244.5 -118l-27 -131q-43 -207 -106.5 -277.5t-171.5 -70.5 q-100 0 -162.5 45t-62.5 139q0 92 95 169t232 132l27 129q-95 -114 -215 -114h-2q-94 0 -160 74.5t-66 199.5zM188 -326q0 -35 20.5 -57.5t55.5 -22.5q53 0 84 59.5t58 178.5l14 66q-111 -49 -171.5 -107.5t-60.5 -116.5zM299 1315q0 45 30.5 76.5t76 31.5t77 -31.5 t31.5 -76.5t-31.5 -76t-77 -31t-76 31t-30.5 76zM635 1315q0 45 30.5 76.5t75.5 31.5t77 -31.5t32 -76.5t-32 -76t-77 -31t-75.5 31t-30.5 76z" />
<glyph unicode="&#x152;" horiz-adv-x="1769" d="M111 977q0 139 115.5 270t306 210t393.5 79q131 0 235 -39q113 39 232 39q72 0 185.5 -12.5t180.5 -12.5q111 0 187 25q-33 -129 -88.5 -171t-139.5 -42q-59 0 -127.5 10t-152.5 28.5t-125 24.5q108 -128 108 -364q0 -87 -12 -176h264l-28 -121h-259q-84 -381 -309 -582 h559l-30 -143h-811q-58 -12 -123 -12q-373 0 -373 411q0 131 36 291t101.5 312.5t177 255t242.5 102.5q56 -1 105 -17q-156 -82 -286 -393t-130 -559t180 -248q109 0 218.5 143.5t178 369t68.5 448.5q0 195 -68.5 276.5t-244.5 81.5q-240 0 -420.5 -151.5t-180.5 -392.5 q0 -86 21 -113q-186 0 -186 172z" />
<glyph unicode="&#x153;" horiz-adv-x="1380" d="M16 311q0 78 14.5 166t53.5 189.5t97.5 181.5t154.5 133t217 53q199 0 227 -243q140 243 377 243h2q219 0 219 -211q0 -172 -132 -280.5t-369 -132.5q-2 -23 -3 -64q0 -106 41 -154.5t138 -48.5q221 0 370 224h66q-86 -160 -231.5 -269.5t-303.5 -109.5q-104 0 -182 52 t-106 159q-125 -211 -330 -211q-143 0 -231.5 78.5t-88.5 244.5zM242 348q0 -109 38.5 -157t133 -48t170 125t96.5 336q-82 0 -82 84q0 94 88 105q-14 129 -123 129q-96 0 -173 -102.5t-112.5 -231.5t-35.5 -240zM887 489q172 25 274.5 119t102.5 232q0 94 -86 94 q-106 0 -184.5 -133t-106.5 -312z" />
<glyph unicode="&#x178;" horiz-adv-x="1257" d="M121 993q0 219 180 381t432 162q31 0 84 -4l193 -797l329 791h95l-398 -895l-135 -631h-223l135 631l-213 831q-172 -45 -261 -178t-89 -285q0 -119 49 -194q-178 0 -178 188zM836 1827q0 45 30.5 76.5t75.5 31.5t77 -31.5t32 -76.5t-32 -76t-77 -31t-75.5 31t-30.5 76z M1171 1827q0 45 31 76.5t76 31.5t76.5 -31.5t31.5 -76.5t-31.5 -76t-76.5 -31t-76 31t-31 76z" />
<glyph unicode="&#x2c6;" horiz-adv-x="600" d="M10 1149l412 342h43l125 -342h-45l-133 207l-332 -207h-70z" />
<glyph unicode="&#x2dc;" horiz-adv-x="825" d="M90 1200q90 180 307 180q72 0 164 -29.5t141 -29.5q76 0 117 41h10q-16 -68 -105 -126t-192 -58q-63 0 -162.5 33.5t-146.5 33.5q-72 0 -123 -49z" />
<glyph unicode="&#x2013;" horiz-adv-x="780" d="M84 473l33 143h532l-31 -143h-534z" />
<glyph unicode="&#x2014;" horiz-adv-x="964" d="M84 473l33 143h717l-31 -143h-719z" />
<glyph unicode="&#x2018;" horiz-adv-x="430" d="M186 1149q0 102 81 221t182 162q18 -12 18 -35q0 -33 -41 -97.5t-41 -94.5q0 -33 35 -65t35 -91q0 -63 -40 -100t-96 -37q-66 0 -99.5 39t-33.5 98z" />
<glyph unicode="&#x2019;" horiz-adv-x="423" d="M219 1047q0 33 41 97t41 95q0 33 -35 65t-35 91q0 63 40 100t96 37q66 0 99.5 -39t33.5 -98q0 -102 -81 -221t-181 -162q-18 12 -19 35z" />
<glyph unicode="&#x201a;" horiz-adv-x="434" d="M-37 -223q0 33 41 97.5t41 94.5q0 33 -35 65t-35 91q0 63 40 100t96 37q129 0 129 -123q0 -102 -82 -228t-176 -169q-18 12 -19 35z" />
<glyph unicode="&#x201c;" horiz-adv-x="878" d="M186 1149q0 102 81 221t182 162q18 -12 18 -35q0 -33 -41 -97.5t-41 -94.5q0 -33 35 -65t35 -91q0 -63 -40 -100t-96 -37q-66 0 -99.5 39t-33.5 98zM635 1149q0 102 81 221t181 162q18 -12 18 -35q0 -33 -40.5 -97.5t-40.5 -94.5q0 -33 34.5 -65t34.5 -91q0 -63 -40 -100 t-95 -37q-66 0 -99.5 39t-33.5 98z" />
<glyph unicode="&#x201d;" horiz-adv-x="872" d="M219 1047q0 33 41 97t41 95q0 33 -35 65t-35 91q0 63 40 100t96 37q66 0 99.5 -39t33.5 -98q0 -102 -81 -221t-181 -162q-18 12 -19 35zM668 1047q0 33 41 97t41 95q0 33 -35 65t-35 91q0 63 40 100t95 37q66 0 99.5 -39t33.5 -98q0 -102 -81 -221t-181 -162 q-18 12 -18 35z" />
<glyph unicode="&#x201e;" horiz-adv-x="886" d="M-37 -223q0 33 41 97.5t41 94.5q0 33 -35 65t-35 91q0 63 40 100t96 37q129 0 129 -123q0 -102 -82 -228t-176 -169q-18 12 -19 35zM416 -223q0 33 41 97.5t41 94.5q0 33 -35 65t-35 91q0 63 40 100t95 37q129 0 129 -123q0 -102 -82 -228t-176 -169q-18 12 -18 35z" />
<glyph unicode="&#x2022;" horiz-adv-x="526" d="M72 546.5q0 71.5 49 121t119 49.5q72 0 121 -49.5t49 -120.5q0 -70 -49.5 -119t-121 -49t-119.5 48t-48 119.5z" />
<glyph unicode="&#x2026;" horiz-adv-x="1423" d="M-25 125q0 55 40 96t95.5 41t96.5 -41t41 -96t-41 -95t-96 -40q-57 0 -96.5 39t-39.5 96zM461 125q0 55 40 96t95 41t96 -41t41 -96t-41 -95t-96 -40q-57 0 -96 39t-39 96zM963 125q0 55 39.5 96t95 41t96.5 -41t41 -96t-41 -95t-96 -40q-57 0 -96 39t-39 96z" />
<glyph unicode="&#x2039;" horiz-adv-x="630" d="M16 520l443 400l86 -93l-359 -309l281 -287l-82 -90z" />
<glyph unicode="&#x203a;" horiz-adv-x="636" d="M35 233l358 310l-280 286l82 91l368 -379l-442 -400z" />
<glyph unicode="&#x20ac;" horiz-adv-x="1251" d="M41 602l22 82h158q9 74 25 154h-154l23 82h151q33 125 83 228t125 194.5t183.5 142.5t239.5 51q147 0 240.5 -67.5t93.5 -208.5q0 -84 -35 -135.5t-104 -51.5q-63 0 -91 37q31 18 60 80.5t29 128.5q0 143 -150 143q-156 0 -266.5 -152.5t-167.5 -389.5h432l-23 -82h-426 q-15 -77 -24 -154h422l-23 -82h-405q-2 -35 -2 -98q0 -86 11 -146.5t43 -118t98.5 -87t166.5 -29.5q197 0 328 131v-82q-74 -88 -206 -146.5t-277 -58.5q-412 0 -412 518q0 74 4 117h-172z" />
<glyph unicode="&#x2122;" horiz-adv-x="989" d="M217 1192q0 66 52.5 111t158.5 45q35 0 81 -7.5t71 -7.5q41 0 73 13q0 -72 -78 -72q-16 0 -98 14l-84 -401h-67l88 411q-8 2 -25 2q-66 0 -97.5 -26.5t-31.5 -93.5q0 -35 12 -52q-55 0 -55 64zM569 887l164 446l62 6l-17 -358l150 358h69l-63 -452h-72l45 319l-133 -319 h-65l14 315l-117 -315h-37z" />
<glyph unicode="&#xe000;" horiz-adv-x="1140" d="M0 1140h1140v-1140h-1140v1140z" />
<glyph unicode="&#xfb01;" horiz-adv-x="933" d="M-377 -340q0 100 88 175t240 138l250 1176q33 154 147.5 269.5t300.5 115.5q131 0 195.5 -60.5t64.5 -162.5q0 -72 -30.5 -114t-87.5 -42q-47 0 -73 26.5t-26 63.5q0 35 22.5 63.5t55.5 34.5q-2 98 -121 99q-182 0 -250 -320l-20 -98h164l-15 -72h-166l-235 -1116 q-43 -207 -105.5 -277.5t-168.5 -70.5q-102 0 -166 44t-64 128zM-297 -328q0 -35 20.5 -56.5t53.5 -21.5q55 0 86 58.5t57 179.5l14 66q-111 -49 -171 -108.5t-60 -117.5zM506 215q0 63 18 152l140 657h206l-149 -696q-10 -41 -10 -92q0 -92 63 -93q100 0 195 224h75 q-47 -121 -97 -202t-98 -117t-84 -48t-77 -12q-182 0 -182 227z" />
<glyph unicode="&#xfb02;" horiz-adv-x="931" d="M-377 -328q0 168 328 301l250 1176q16 74 36.5 130t61.5 120.5t110.5 99.5t163.5 35q45 0 86 -4t67 -8t61.5 -16.5t51.5 -19.5l59 -26l60 -26l-239 -1106q-10 -41 -10 -92q0 -92 63 -93q100 0 195 224h75q-47 -121 -97 -202t-98 -117t-84 -48t-77 -12q-182 0 -182 227 q0 63 18 152l219 1028q-78 10 -118 10q-100 0 -146.5 -68t-77.5 -215l-20 -98h164l-15 -72h-166l-235 -1116q-43 -207 -106.5 -277.5t-172.5 -70.5q-100 0 -162.5 45t-62.5 139zM-297 -326q0 -35 20.5 -57.5t55.5 -22.5q53 0 84 59.5t57 178.5l14 66q-111 -49 -171 -108.5 t-60 -115.5z" />
<glyph unicode="&#xfb03;" horiz-adv-x="1427" d="M-375 -328q0 160 326 297l252 1180q16 74 36.5 130t61.5 120.5t110.5 99.5t163.5 35q180 0 226 -158q129 158 340 158q131 0 195.5 -60.5t64.5 -162.5q0 -72 -31 -114t-88 -42q-47 0 -72.5 26.5t-25.5 63.5q0 35 22.5 63.5t55.5 34.5q-2 98 -121 99q-182 0 -250 -320 l-21 -98h166l-14 -72h-168l-236 -1116q-37 -180 -118.5 -264t-186.5 -84q-141 0 -256 125q-37 -72 -85 -98.5t-122 -26.5q-100 0 -162.5 45t-62.5 139zM-295 -326q0 -35 20.5 -57.5t55.5 -22.5q53 0 84 59.5t57 178.5l12 59q-229 -106 -229 -217zM84 -328q73 -78 149 -78 q127 0 179 238l45 211q-156 -29 -299 -72l-29 -135q-23 -100 -45 -164zM174 47q150 43 297 68l221 1034q14 66 37 111v18q0 53 -26.5 90t-77.5 37q-100 0 -146.5 -68t-77.5 -215l-20 -98h164l-15 -72h-165zM999 215q0 63 19 152l139 657h207l-150 -696q-10 -41 -10 -92 q0 -92 64 -93q100 0 194 224h76q-47 -121 -97 -202t-98.5 -117t-84 -48t-76.5 -12q-182 0 -183 227z" />
<glyph unicode="&#xfb04;" horiz-adv-x="1419" d="M-375 -328q0 160 326 297l252 1180q16 74 36.5 130t61.5 120.5t110.5 99.5t163.5 35q160 0 216 -129q96 129 270 129q45 0 86 -4t66.5 -8t61.5 -16.5t52 -19.5l58 -26l61 -26l-240 -1106q-10 -41 -10 -92q0 -92 64 -93q100 0 194 224h76q-47 -121 -97.5 -202t-98.5 -117 t-84 -48t-76 -12q-182 0 -183 227q0 63 19 152l219 1028q-78 10 -119 10q-100 0 -146 -67.5t-77 -215.5l-21 -98h164l-14 -72h-166l-236 -1116q-37 -180 -118.5 -264t-186.5 -84q-141 0 -254 123q-63 -123 -205 -123q-100 0 -162.5 45t-62.5 139zM-295 -326 q0 -35 20.5 -57.5t55.5 -22.5q53 0 84 59.5t57 178.5l12 59q-229 -106 -229 -217zM82 -330q73 -76 147 -76q127 0 179 238l45 211q-184 -37 -295 -72l-29 -135q-20 -96 -47 -166zM174 47q143 41 293 68l221 1034q20 86 41 143q-4 47 -30.5 80t-73.5 33q-100 0 -146.5 -68 t-77.5 -215l-20 -98h164l-15 -72h-165z" />
</font>
</defs>
</svg>
